<svg id="Layer_1" data-name="Layer 1" xmlns="http://www.w3.org/2000/svg" viewBox="0 0 289.4 74.8"><defs><style>.cls-1{fill:none;stroke:#000;stroke-miterlimit:10;stroke-width:0.5px;}</style></defs><title>pattern1</title><polyline class="cls-1" points="0.2 11.4 9.2 2.6 18.3 11.4 27.1 2.6 36.2 11.4 45.2 2.6 54.2 11.4 63.2 2.6 72.1 11.4 81.1 2.6 90.2 11.4 99.2 2.6 108.1 11.4 117.2 2.6 126.3 11.4 135.2 2.6 144.2 11.4 153.1 2.6 162.2 11.4 171.3 2.6 180.2 11.4 189.3 2.6 198.2 11.4 207.2 2.6 216.1 11.4 225.2 2.4 234.2 11.4 243.1 2.4 252 11.4 261.2 2.4 270.2 11.4 279.2 2.4 288.2 11.4"/><polyline class="cls-1" points="0.2 13.4 9.2 4.6 18.3 13.4 27.1 4.6 36.2 13.4 45.2 4.6 54.2 13.4 63.2 4.6 72.1 13.4 81.1 4.6 90.2 13.4 99.2 4.6 108.1 13.4 117.2 4.6 126.3 13.4 135.2 4.6 144.2 13.4 153.1 4.6 162.2 13.4 171.3 4.6 180.2 13.4 189.3 4.6 198.2 13.4 207.2 4.6 216.1 13.4 225.2 4.4 234.2 13.4 243.1 4.4 252 13.4 261.2 4.4 270.2 13.4 279.2 4.4 288.2 13.4"/><polyline class="cls-1" points="0.2 15.4 9.2 6.6 18.3 15.4 27.1 6.6 36.2 15.4 45.2 6.6 54.2 15.4 63.2 6.6 72.1 15.4 81.1 6.6 90.2 15.4 99.2 6.6 108.1 15.4 117.2 6.6 126.3 15.4 135.2 6.6 144.2 15.4 153.1 6.6 162.2 15.4 171.3 6.6 180.2 15.4 189.3 6.6 198.2 15.4 207.2 6.6 216.1 15.4 225.2 6.4 234.2 15.4 243.1 6.4 252 15.4 261.2 6.4 270.2 15.4 279.2 6.4 288.2 15.4"/><polyline class="cls-1" points="0.2 17.4 9.2 8.6 18.3 17.4 27.1 8.6 36.2 17.4 45.2 8.6 54.2 17.4 63.2 8.6 72.1 17.4 81.1 8.6 90.2 17.4 99.2 8.6 108.1 17.4 117.2 8.6 126.3 17.4 135.2 8.6 144.2 17.4 153.1 8.6 162.2 17.4 171.3 8.6 180.2 17.4 189.3 8.6 198.2 17.4 207.2 8.6 216.1 17.4 225.2 8.4 234.2 17.4 243.1 8.4 252 17.4 261.2 8.4 270.2 17.4 279.2 8.4 288.2 17.4"/><polyline class="cls-1" points="0.2 19.4 9.2 10.6 18.3 19.4 27.1 10.6 36.2 19.4 45.2 10.6 54.2 19.4 63.2 10.6 72.1 19.4 81.1 10.6 90.2 19.4 99.2 10.6 108.1 19.4 117.2 10.6 126.3 19.4 135.2 10.6 144.2 19.4 153.1 10.6 162.2 19.4 171.3 10.6 180.2 19.4 189.3 10.6 198.2 19.4 207.2 10.6 216.1 19.4 225.2 10.4 234.2 19.4 243.1 10.4 252 19.4 261.2 10.4 270.2 19.4 279.2 10.4 288.2 19.4"/><polyline class="cls-1" points="0.2 19.4 9.2 10.6 18.3 19.4 27.1 10.6 36.2 19.4 45.2 10.6 54.2 19.4 63.2 10.6 72.1 19.4 81.1 10.6 90.2 19.4 99.2 10.6 108.1 19.4 117.2 10.6 126.3 19.4 135.2 10.6 144.2 19.4 153.1 10.6 162.2 19.4 171.3 10.6 180.2 19.4 189.3 10.6 198.2 19.4 207.2 10.6 216.1 19.4 225.2 10.4 234.2 19.4 243.1 10.4 252 19.4 261.2 10.4 270.2 19.4 279.2 10.4 288.2 19.4"/><polyline class="cls-1" points="0.2 26.4 9.2 17.6 18.3 26.4 27.1 17.6 36.2 26.4 45.2 17.6 54.2 26.4 63.2 17.6 72.1 26.4 81.1 17.6 90.2 26.4 99.2 17.6 108.1 26.4 117.2 17.6 126.3 26.4 135.2 17.6 144.2 26.4 153.1 17.6 162.2 26.4 171.3 17.6 180.2 26.4 189.3 17.6 198.2 26.4 207.2 17.6 216.1 26.4 225.2 17.4 234.2 26.4 243.1 17.4 252 26.4 261.2 17.4 270.2 26.4 279.2 17.4 288.2 26.4"/><polyline class="cls-1" points="0.2 28.4 9.2 19.6 18.3 28.4 27.1 19.6 36.2 28.4 45.2 19.6 54.2 28.4 63.2 19.6 72.1 28.4 81.1 19.6 90.2 28.4 99.2 19.6 108.1 28.4 117.2 19.6 126.3 28.4 135.2 19.6 144.2 28.4 153.1 19.6 162.2 28.4 171.3 19.6 180.2 28.4 189.3 19.6 198.2 28.4 207.2 19.6 216.1 28.4 225.2 19.4 234.2 28.4 243.1 19.4 252 28.4 261.2 19.4 270.2 28.4 279.2 19.4 288.2 28.4"/><polyline class="cls-1" points="0.2 30.4 9.2 21.6 18.3 30.4 27.1 21.6 36.2 30.4 45.2 21.6 54.2 30.4 63.2 21.6 72.1 30.4 81.1 21.6 90.2 30.4 99.2 21.6 108.1 30.4 117.2 21.6 126.3 30.4 135.2 21.6 144.2 30.4 153.1 21.6 162.2 30.4 171.3 21.6 180.2 30.4 189.3 21.6 198.2 30.4 207.2 21.6 216.1 30.4 225.2 21.4 234.2 30.4 243.1 21.4 252 30.4 261.2 21.4 270.2 30.4 279.2 21.4 288.2 30.4"/><polyline class="cls-1" points="0.2 32.4 9.2 23.6 18.3 32.4 27.1 23.6 36.2 32.4 45.2 23.6 54.2 32.4 63.2 23.6 72.1 32.4 81.1 23.6 90.2 32.4 99.2 23.6 108.1 32.4 117.2 23.6 126.3 32.4 135.2 23.6 144.2 32.4 153.1 23.6 162.2 32.4 171.3 23.6 180.2 32.4 189.3 23.6 198.2 32.4 207.2 23.6 216.1 32.4 225.2 23.4 234.2 32.4 243.1 23.4 252 32.4 261.2 23.4 270.2 32.4 279.2 23.4 288.2 32.4"/><polyline class="cls-1" points="288.2 33.4 279.2 42.2 270.1 33.4 261.3 42.2 252.1 33.4 243.1 42.2 234.2 33.4 225.2 42.2 216.3 33.4 207.3 42.2 198.2 33.4 189.2 42.2 180.3 33.4 171.1 42.2 162.1 33.4 153.2 42.2 144.2 33.4 135.3 42.2 126.2 33.4 117.1 42.2 108.2 33.4 99.1 42.2 90.2 33.4 81.2 42.2 72.3 33.4 63.2 42.4 54.2 33.4 45.3 42.4 36.3 33.4 27.2 42.4 18.2 33.4 9.2 42.4 0.2 33.4"/><polyline class="cls-1" points="0.2 57.5 9.2 48.7 18.3 57.5 27.1 48.7 36.2 57.5 45.2 48.7 54.2 57.5 63.2 48.7 72.1 57.5 81.1 48.7 90.2 57.5 99.2 48.7 108.1 57.5 117.2 48.7 126.3 57.5 135.2 48.7 144.2 57.5 153.1 48.7 162.2 57.5 171.3 48.7 180.2 57.5 189.3 48.7 198.2 57.5 207.2 48.7 216.1 57.5 225.2 48.4 234.2 57.5 243.1 48.4 252 57.5 261.2 48.4 270.2 57.5 279.2 48.4 288.2 57.5"/><polyline class="cls-1" points="0.2 59.5 9.2 50.7 18.3 59.5 27.1 50.7 36.2 59.5 45.2 50.7 54.2 59.5 63.2 50.7 72.1 59.5 81.1 50.7 90.2 59.5 99.2 50.7 108.1 59.5 117.2 50.7 126.3 59.5 135.2 50.7 144.2 59.5 153.1 50.7 162.2 59.5 171.3 50.7 180.2 59.5 189.3 50.7 198.2 59.5 207.2 50.7 216.1 59.5 225.2 50.4 234.2 59.5 243.1 50.4 252 59.5 261.2 50.4 270.2 59.5 279.2 50.4 288.2 59.5"/><polyline class="cls-1" points="0.2 61.5 9.2 52.7 18.3 61.5 27.1 52.7 36.2 61.5 45.2 52.7 54.2 61.5 63.2 52.7 72.1 61.5 81.1 52.7 90.2 61.5 99.2 52.7 108.1 61.5 117.2 52.7 126.3 61.5 135.2 52.7 144.2 61.5 153.1 52.7 162.2 61.5 171.3 52.7 180.2 61.5 189.3 52.7 198.2 61.5 207.2 52.7 216.1 61.5 225.2 52.4 234.2 61.5 243.1 52.4 252 61.5 261.2 52.4 270.2 61.5 279.2 52.4 288.2 61.5"/><polyline class="cls-1" points="0.2 63.5 9.2 54.7 18.3 63.5 27.1 54.7 36.2 63.5 45.2 54.7 54.2 63.5 63.2 54.7 72.1 63.5 81.1 54.7 90.2 63.5 99.2 54.7 108.1 63.5 117.2 54.7 126.3 63.5 135.2 54.7 144.2 63.5 153.1 54.7 162.2 63.5 171.3 54.7 180.2 63.5 189.3 54.7 198.2 63.5 207.2 54.7 216.1 63.5 225.2 54.4 234.2 63.5 243.1 54.4 252 63.5 261.2 54.4 270.2 63.5 279.2 54.4 288.2 63.5"/><polyline class="cls-1" points="288.2 39.4 279.2 48.3 270.1 39.4 261.3 48.3 252.1 39.4 243.1 48.3 234.2 39.4 225.2 48.3 216.3 39.4 207.3 48.3 198.2 39.4 189.2 48.3 180.3 39.4 171.1 48.3 162.1 39.4 153.2 48.3 144.2 39.4 135.3 48.3 126.2 39.4 117.1 48.3 108.2 39.4 99.1 48.3 90.2 39.4 81.2 48.3 72.3 39.4 63.2 48.5 54.2 39.4 45.3 48.5 36.3 39.4 27.2 48.5 18.2 39.4 9.2 48.5 0.2 39.4"/><polyline class="cls-1" points="288.2 37.4 279.2 46.3 270.1 37.4 261.3 46.3 252.1 37.4 243.1 46.3 234.2 37.4 225.2 46.3 216.3 37.4 207.3 46.3 198.2 37.4 189.2 46.3 180.3 37.4 171.1 46.3 162.1 37.4 153.2 46.3 144.2 37.4 135.3 46.3 126.2 37.4 117.1 46.3 108.2 37.4 99.1 46.3 90.2 37.4 81.2 46.3 72.3 37.4 63.2 46.5 54.2 37.4 45.3 46.5 36.3 37.4 27.2 46.5 18.2 37.4 9.2 46.5 0.2 37.4"/><polyline class="cls-1" points="288.2 35.4 279.2 44.3 270.1 35.4 261.3 44.3 252.1 35.4 243.1 44.3 234.2 35.4 225.2 44.3 216.3 35.4 207.3 44.3 198.2 35.4 189.2 44.3 180.3 35.4 171.1 44.3 162.1 35.4 153.2 44.3 144.2 35.4 135.3 44.3 126.2 35.4 117.1 44.3 108.2 35.4 99.1 44.3 90.2 35.4 81.2 44.3 72.3 35.4 63.2 44.5 54.2 35.4 45.3 44.5 36.3 35.4 27.2 44.5 18.2 35.4 9.2 44.5 0.2 35.4"/><polyline class="cls-1" points="0.2 9.4 9.2 0.6 18.3 9.4 27.1 0.6 36.2 9.4 45.2 0.6 54.2 9.4 63.2 0.6 72.1 9.4 81.1 0.6 90.2 9.4 99.2 0.6 108.1 9.4 117.2 0.6 126.3 9.4 135.2 0.6 144.2 9.4 153.1 0.6 162.2 9.4 171.3 0.6 180.2 9.4 189.3 0.6 198.2 9.4 207.2 0.6 216.1 9.4 225.2 0.4 234.2 9.4 243.1 0.4 252 9.4 261.2 0.4 270.2 9.4 279.2 0.4 288.2 9.4"/><polyline class="cls-1" points="1.2 66.4 10.2 57.6 19.3 66.4 28.2 57.6 37.3 66.4 46.3 57.6 55.2 66.4 64.2 57.6 73.2 66.4 82.2 57.6 91.2 66.4 100.2 57.6 109.2 66.4 118.3 57.6 127.3 66.4 136.2 57.6 145.2 66.4 154.2 57.6 163.2 66.4 172.3 57.6 181.2 66.4 190.3 57.6 199.2 66.4 208.2 57.6 217.2 66.4 226.2 57.4 235.2 66.4 244.2 57.4 253.1 66.4 262.2 57.4 271.2 66.4 280.2 57.4 289.2 66.4"/><polyline class="cls-1" points="1.2 68.4 10.2 59.6 19.3 68.4 28.2 59.6 37.3 68.4 46.3 59.6 55.2 68.4 64.2 59.6 73.2 68.4 82.2 59.6 91.2 68.4 100.2 59.6 109.2 68.4 118.3 59.6 127.3 68.4 136.2 59.6 145.2 68.4 154.2 59.6 163.2 68.4 172.3 59.6 181.2 68.4 190.3 59.6 199.2 68.4 208.2 59.6 217.2 68.4 226.2 59.4 235.2 68.4 244.2 59.4 253.1 68.4 262.2 59.4 271.2 68.4 280.2 59.4 289.2 68.4"/><polyline class="cls-1" points="1.2 70.4 10.2 61.6 19.3 70.4 28.2 61.6 37.3 70.4 46.3 61.6 55.2 70.4 64.2 61.6 73.2 70.4 82.2 61.6 91.2 70.4 100.2 61.6 109.2 70.4 118.3 61.6 127.3 70.4 136.2 61.6 145.2 70.4 154.2 61.6 163.2 70.4 172.3 61.6 181.2 70.4 190.3 61.6 199.2 70.4 208.2 61.6 217.2 70.4 226.2 61.4 235.2 70.4 244.2 61.4 253.1 70.4 262.2 61.4 271.2 70.4 280.2 61.4 289.2 70.4"/><polyline class="cls-1" points="1.2 72.4 10.2 63.6 19.3 72.4 28.2 63.6 37.3 72.4 46.3 63.6 55.2 72.4 64.2 63.6 73.2 72.4 82.2 63.6 91.2 72.4 100.2 63.6 109.2 72.4 118.3 63.6 127.3 72.4 136.2 63.6 145.2 72.4 154.2 63.6 163.2 72.4 172.3 63.6 181.2 72.4 190.3 63.6 199.2 72.4 208.2 63.6 217.2 72.4 226.2 63.4 235.2 72.4 244.2 63.4 253.1 72.4 262.2 63.4 271.2 72.4 280.2 63.4 289.2 72.4"/><polyline class="cls-1" points="1.2 74.4 10.2 65.6 19.3 74.4 28.2 65.6 37.3 74.4 46.3 65.6 55.2 74.4 64.2 65.6 73.2 74.4 82.2 65.6 91.2 74.4 100.2 65.6 109.2 74.4 118.3 65.6 127.3 74.4 136.2 65.6 145.2 74.4 154.2 65.6 163.2 74.4 172.3 65.6 181.2 74.4 190.3 65.6 199.2 74.4 208.2 65.6 217.2 74.4 226.2 65.4 235.2 74.4 244.2 65.4 253.1 74.4 262.2 65.4 271.2 74.4 280.2 65.4 289.2 74.4"/><polyline class="cls-1" points="1.2 74.4 10.2 65.6 19.3 74.4 28.2 65.6 37.3 74.4 46.3 65.6 55.2 74.4 64.2 65.6 73.2 74.4 82.2 65.6 91.2 74.4 100.2 65.6 109.2 74.4 118.3 65.6 127.3 74.4 136.2 65.6 145.2 74.4 154.2 65.6 163.2 74.4 172.3 65.6 181.2 74.4 190.3 65.6 199.2 74.4 208.2 65.6 217.2 74.4 226.2 65.4 235.2 74.4 244.2 65.4 253.1 74.4 262.2 65.4 271.2 74.4 280.2 65.4 289.2 74.4"/><polyline class="cls-1" points="1.2 64.4 10.2 55.6 19.3 64.4 28.2 55.6 37.3 64.4 46.3 55.6 55.2 64.4 64.2 55.6 73.2 64.4 82.2 55.6 91.2 64.4 100.2 55.6 109.2 64.4 118.3 55.6 127.3 64.4 136.2 55.6 145.2 64.4 154.2 55.6 163.2 64.4 172.3 55.6 181.2 64.4 190.3 55.6 199.2 64.4 208.2 55.6 217.2 64.4 226.2 55.4 235.2 64.4 244.2 55.4 253.1 64.4 262.2 55.4 271.2 64.4 280.2 55.4 289.2 64.4"/></svg>