<svg id="Layer_1" data-name="Layer 1" xmlns="http://www.w3.org/2000/svg" viewBox="0 0 288.4 52.8"><defs><style>.cls-1{fill:none;stroke:#000;stroke-miterlimit:10;stroke-width:0.5px;}</style></defs><title>pattern</title><polyline class="cls-1" points="0.2 11.4 9.2 2.6 18.3 11.4 27.1 2.6 36.2 11.4 45.2 2.6 54.2 11.4 63.2 2.6 72.1 11.4 81.1 2.6 90.2 11.4 99.2 2.6 108.1 11.4 117.2 2.6 126.3 11.4 135.2 2.6 144.2 11.4 153.1 2.6 162.2 11.4 171.3 2.6 180.2 11.4 189.3 2.6 198.2 11.4 207.2 2.6 216.1 11.4 225.2 2.4 234.2 11.4 243.1 2.4 252 11.4 261.2 2.4 270.2 11.4 279.2 2.4 288.2 11.4"/><polyline class="cls-1" points="0.2 13.4 9.2 4.6 18.3 13.4 27.1 4.6 36.2 13.4 45.2 4.6 54.2 13.4 63.2 4.6 72.1 13.4 81.1 4.6 90.2 13.4 99.2 4.6 108.1 13.4 117.2 4.6 126.3 13.4 135.2 4.6 144.2 13.4 153.1 4.6 162.2 13.4 171.3 4.6 180.2 13.4 189.3 4.6 198.2 13.4 207.2 4.6 216.1 13.4 225.2 4.4 234.2 13.4 243.1 4.4 252 13.4 261.2 4.4 270.2 13.4 279.2 4.4 288.2 13.4"/><polyline class="cls-1" points="0.2 15.4 9.2 6.6 18.3 15.4 27.1 6.6 36.2 15.4 45.2 6.6 54.2 15.4 63.2 6.6 72.1 15.4 81.1 6.6 90.2 15.4 99.2 6.6 108.1 15.4 117.2 6.6 126.3 15.4 135.2 6.6 144.2 15.4 153.1 6.6 162.2 15.4 171.3 6.6 180.2 15.4 189.3 6.6 198.2 15.4 207.2 6.6 216.1 15.4 225.2 6.4 234.2 15.4 243.1 6.4 252 15.4 261.2 6.4 270.2 15.4 279.2 6.4 288.2 15.4"/><polyline class="cls-1" points="0.2 17.4 9.2 8.6 18.3 17.4 27.1 8.6 36.2 17.4 45.2 8.6 54.2 17.4 63.2 8.6 72.1 17.4 81.1 8.6 90.2 17.4 99.2 8.6 108.1 17.4 117.2 8.6 126.3 17.4 135.2 8.6 144.2 17.4 153.1 8.6 162.2 17.4 171.3 8.6 180.2 17.4 189.3 8.6 198.2 17.4 207.2 8.6 216.1 17.4 225.2 8.4 234.2 17.4 243.1 8.4 252 17.4 261.2 8.4 270.2 17.4 279.2 8.4 288.2 17.4"/><polyline class="cls-1" points="0.2 19.4 9.2 10.6 18.3 19.4 27.1 10.6 36.2 19.4 45.2 10.6 54.2 19.4 63.2 10.6 72.1 19.4 81.1 10.6 90.2 19.4 99.2 10.6 108.1 19.4 117.2 10.6 126.3 19.4 135.2 10.6 144.2 19.4 153.1 10.6 162.2 19.4 171.3 10.6 180.2 19.4 189.3 10.6 198.2 19.4 207.2 10.6 216.1 19.4 225.2 10.4 234.2 19.4 243.1 10.4 252 19.4 261.2 10.4 270.2 19.4 279.2 10.4 288.2 19.4"/><polyline class="cls-1" points="0.2 19.4 9.2 10.6 18.3 19.4 27.1 10.6 36.2 19.4 45.2 10.6 54.2 19.4 63.2 10.6 72.1 19.4 81.1 10.6 90.2 19.4 99.2 10.6 108.1 19.4 117.2 10.6 126.3 19.4 135.2 10.6 144.2 19.4 153.1 10.6 162.2 19.4 171.3 10.6 180.2 19.4 189.3 10.6 198.2 19.4 207.2 10.6 216.1 19.4 225.2 10.4 234.2 19.4 243.1 10.4 252 19.4 261.2 10.4 270.2 19.4 279.2 10.4 288.2 19.4"/><polyline class="cls-1" points="0.2 26.4 9.2 17.6 18.3 26.4 27.1 17.6 36.2 26.4 45.2 17.6 54.2 26.4 63.2 17.6 72.1 26.4 81.1 17.6 90.2 26.4 99.2 17.6 108.1 26.4 117.2 17.6 126.3 26.4 135.2 17.6 144.2 26.4 153.1 17.6 162.2 26.4 171.3 17.6 180.2 26.4 189.3 17.6 198.2 26.4 207.2 17.6 216.1 26.4 225.2 17.4 234.2 26.4 243.1 17.4 252 26.4 261.2 17.4 270.2 26.4 279.2 17.4 288.2 26.4"/><polyline class="cls-1" points="0.2 28.4 9.2 19.6 18.3 28.4 27.1 19.6 36.2 28.4 45.2 19.6 54.2 28.4 63.2 19.6 72.1 28.4 81.1 19.6 90.2 28.4 99.2 19.6 108.1 28.4 117.2 19.6 126.3 28.4 135.2 19.6 144.2 28.4 153.1 19.6 162.2 28.4 171.3 19.6 180.2 28.4 189.3 19.6 198.2 28.4 207.2 19.6 216.1 28.4 225.2 19.4 234.2 28.4 243.1 19.4 252 28.4 261.2 19.4 270.2 28.4 279.2 19.4 288.2 28.4"/><polyline class="cls-1" points="0.2 30.4 9.2 21.6 18.3 30.4 27.1 21.6 36.2 30.4 45.2 21.6 54.2 30.4 63.2 21.6 72.1 30.4 81.1 21.6 90.2 30.4 99.2 21.6 108.1 30.4 117.2 21.6 126.3 30.4 135.2 21.6 144.2 30.4 153.1 21.6 162.2 30.4 171.3 21.6 180.2 30.4 189.3 21.6 198.2 30.4 207.2 21.6 216.1 30.4 225.2 21.4 234.2 30.4 243.1 21.4 252 30.4 261.2 21.4 270.2 30.4 279.2 21.4 288.2 30.4"/><polyline class="cls-1" points="0.2 32.4 9.2 23.6 18.3 32.4 27.1 23.6 36.2 32.4 45.2 23.6 54.2 32.4 63.2 23.6 72.1 32.4 81.1 23.6 90.2 32.4 99.2 23.6 108.1 32.4 117.2 23.6 126.3 32.4 135.2 23.6 144.2 32.4 153.1 23.6 162.2 32.4 171.3 23.6 180.2 32.4 189.3 23.6 198.2 32.4 207.2 23.6 216.1 32.4 225.2 23.4 234.2 32.4 243.1 23.4 252 32.4 261.2 23.4 270.2 32.4 279.2 23.4 288.2 32.4"/><polyline class="cls-1" points="0.2 34.4 9.2 25.6 18.3 34.4 27.1 25.6 36.2 34.4 45.2 25.6 54.2 34.4 63.2 25.6 72.1 34.4 81.1 25.6 90.2 34.4 99.2 25.6 108.1 34.4 117.2 25.6 126.3 34.4 135.2 25.6 144.2 34.4 153.1 25.6 162.2 34.4 171.3 25.6 180.2 34.4 189.3 25.6 198.2 34.4 207.2 25.6 216.1 34.4 225.2 25.4 234.2 34.4 243.1 25.4 252 34.4 261.2 25.4 270.2 34.4 279.2 25.4 288.2 34.4"/><polyline class="cls-1" points="0.2 36.4 9.2 27.6 18.3 36.4 27.1 27.6 36.2 36.4 45.2 27.6 54.2 36.4 63.2 27.6 72.1 36.4 81.1 27.6 90.2 36.4 99.2 27.6 108.1 36.4 117.2 27.6 126.3 36.4 135.2 27.6 144.2 36.4 153.1 27.6 162.2 36.4 171.3 27.6 180.2 36.4 189.3 27.6 198.2 36.4 207.2 27.6 216.1 36.4 225.2 27.4 234.2 36.4 243.1 27.4 252 36.4 261.2 27.4 270.2 36.4 279.2 27.4 288.2 36.4"/><polyline class="cls-1" points="0.2 42.4 9.2 33.6 18.3 42.4 27.1 33.6 36.2 42.4 45.2 33.6 54.2 42.4 63.2 33.6 72.1 42.4 81.1 33.6 90.2 42.4 99.2 33.6 108.1 42.4 117.2 33.6 126.3 42.4 135.2 33.6 144.2 42.4 153.1 33.6 162.2 42.4 171.3 33.6 180.2 42.4 189.3 33.6 198.2 42.4 207.2 33.6 216.1 42.4 225.2 33.4 234.2 42.4 243.1 33.4 252 42.4 261.2 33.4 270.2 42.4 279.2 33.4 288.2 42.4"/><polyline class="cls-1" points="0.2 44.4 9.2 35.6 18.3 44.4 27.1 35.6 36.2 44.4 45.2 35.6 54.2 44.4 63.2 35.6 72.1 44.4 81.1 35.6 90.2 44.4 99.2 35.6 108.1 44.4 117.2 35.6 126.3 44.4 135.2 35.6 144.2 44.4 153.1 35.6 162.2 44.4 171.3 35.6 180.2 44.4 189.3 35.6 198.2 44.4 207.2 35.6 216.1 44.4 225.2 35.4 234.2 44.4 243.1 35.4 252 44.4 261.2 35.4 270.2 44.4 279.2 35.4 288.2 44.4"/><polyline class="cls-1" points="0.2 46.4 9.2 37.6 18.3 46.4 27.1 37.6 36.2 46.4 45.2 37.6 54.2 46.4 63.2 37.6 72.1 46.4 81.1 37.6 90.2 46.4 99.2 37.6 108.1 46.4 117.2 37.6 126.3 46.4 135.2 37.6 144.2 46.4 153.1 37.6 162.2 46.4 171.3 37.6 180.2 46.4 189.3 37.6 198.2 46.4 207.2 37.6 216.1 46.4 225.2 37.4 234.2 46.4 243.1 37.4 252 46.4 261.2 37.4 270.2 46.4 279.2 37.4 288.2 46.4"/><polyline class="cls-1" points="0.2 48.4 9.2 39.6 18.3 48.4 27.1 39.6 36.2 48.4 45.2 39.6 54.2 48.4 63.2 39.6 72.1 48.4 81.1 39.6 90.2 48.4 99.2 39.6 108.1 48.4 117.2 39.6 126.3 48.4 135.2 39.6 144.2 48.4 153.1 39.6 162.2 48.4 171.3 39.6 180.2 48.4 189.3 39.6 198.2 48.4 207.2 39.6 216.1 48.4 225.2 39.4 234.2 48.4 243.1 39.4 252 48.4 261.2 39.4 270.2 48.4 279.2 39.4 288.2 48.4"/><polyline class="cls-1" points="0.2 50.4 9.2 41.6 18.3 50.4 27.1 41.6 36.2 50.4 45.2 41.6 54.2 50.4 63.2 41.6 72.1 50.4 81.1 41.6 90.2 50.4 99.2 41.6 108.1 50.4 117.2 41.6 126.3 50.4 135.2 41.6 144.2 50.4 153.1 41.6 162.2 50.4 171.3 41.6 180.2 50.4 189.3 41.6 198.2 50.4 207.2 41.6 216.1 50.4 225.2 41.4 234.2 50.4 243.1 41.4 252 50.4 261.2 41.4 270.2 50.4 279.2 41.4 288.2 50.4"/><polyline class="cls-1" points="0.2 52.4 9.2 43.6 18.3 52.4 27.1 43.6 36.2 52.4 45.2 43.6 54.2 52.4 63.2 43.6 72.1 52.4 81.1 43.6 90.2 52.4 99.2 43.6 108.1 52.4 117.2 43.6 126.3 52.4 135.2 43.6 144.2 52.4 153.1 43.6 162.2 52.4 171.3 43.6 180.2 52.4 189.3 43.6 198.2 52.4 207.2 43.6 216.1 52.4 225.2 43.4 234.2 52.4 243.1 43.4 252 52.4 261.2 43.4 270.2 52.4 279.2 43.4 288.2 52.4"/><polyline class="cls-1" points="0.2 9.4 9.2 0.6 18.3 9.4 27.1 0.6 36.2 9.4 45.2 0.6 54.2 9.4 63.2 0.6 72.1 9.4 81.1 0.6 90.2 9.4 99.2 0.6 108.1 9.4 117.2 0.6 126.3 9.4 135.2 0.6 144.2 9.4 153.1 0.6 162.2 9.4 171.3 0.6 180.2 9.4 189.3 0.6 198.2 9.4 207.2 0.6 216.1 9.4 225.2 0.4 234.2 9.4 243.1 0.4 252 9.4 261.2 0.4 270.2 9.4 279.2 0.4 288.2 9.4"/></svg>