<svg id="Layer_2" data-name="Layer 2" xmlns="http://www.w3.org/2000/svg" viewBox="0 0 1307.8 1580.5"><defs><style>.cls-1{fill:none;stroke:#231f20;stroke-miterlimit:10;stroke-width:3px;}</style></defs><title>birth</title><path class="cls-1" d="M300.6,539c35.5,52.8,106.9,83.8,106.9,83.8l75.7,36.8S513.8,672,519,680.1s43,16.6,43,16.6l64.7,22.2s29.7,5.2,36.4,0S628.7,700,628.7,700L499.2,648.6s-77.9-34.9-97.6-47.4-69.8-61.7-74.4-66.8-6.6-14.8-3.9-17.9,10.1-.4,10.1-.4l44.9,12.7S511.2,573,527.8,584s33.1,4.6,46.9-.3S646.1,598,646.1,598s61.9,23.6,104.8,31.9,44.5,15.5,44.5,15.5,16.6,23.2,10.8,1.9S741,619.2,741,619.2,720.8,616,724.4,598s27.1-45.2,45.8-72.7,64.7-64,64.7-64,26.9-14,34.7-9.1,6.5,12.4,6.5,12.4l3.3,60.7s2.3,13,9.1,10,5.2-12.4,5.2-12.4l-3.1-65s-1.1-36-5-69.2-30.3-59.6-30.3-59.6l-77.6-47c-7.3-4.6-19.6-24.6-7.5-35.7s8-17.3,8-17.3c-7-9.1,0-16.6,0-16.6s8-6.3,6.4-9.2.2-13.5.2-13.5,6.9-5.1,9.8-9.9-3.4-11.5-3.4-11.5C768.1,154,779.3,143,779.3,143c-3.7,1.7,41-15.8,48.8-21.5,14.3-10.5,15.8-16.2,15.8-16.2,13.9-48.3,57.2-68.8,72.6-74.5a21.1,21.1,0,0,1,11.4-.8c7.4,1.7,17.7,6.2,18.9,9.5s-5.2,2.8,0,20.8,24.8,18.8,25.4,41.7,5.7,53.7,39,31.8c26.5-17.4,33.2-12.4,45.3-5.6"/><path class="cls-1" d="M309.2,1580.5s-3.5-254.1,30.4-317.5,51.6-91.9,179.5-81.9,402.3,52,402.3,52,46.7,1.5,0-8.5-331.8-52.9-331.8-52.9S531.3,1113,607,976.1"/><path class="cls-1" d="M571.2,1131.9l-224.9-34.4s-56.3-6.6-90.8,17.2-43.9,105.7-43.9,105.7l-6.8,72.2"/><path class="cls-1" d="M1062.6,532.7s55.3,32.6,17.6,106.4-79.1,109.3-79.1,109.3-64.6,50.5-173.3,117-182.4,96.5-182.4,96.5-20.6,1.9-32.1,8.7-28.4,15-63.8-7.4S367.9,799.1,317,717.5c0,0-33.5-57.8-68.9-61.8s-71.3-33.8-71.3-33.8-7.7-12-7.5-19.6a13.7,13.7,0,0,0-5.5-11.3s-8.8-6.3-10.1-15,.7-18.3-7.4-24-40.4-19.4-41.7-39.5,17.3-28.7,25.7-20.5,5.3,9.1,12.4,9.7,21.8-4.5,21.8-4.5,19-1.2,27-1,7.2-10.5,49.4,19.8c0,0,12.9,6.1,6.8-1.4s-23.6-25.7-19.2-35.4,19.9-2.6,19.9-2.6,28.3,12.9,42.3,41.3,29.4,65.4,30.5,70.6,8.4,12.9,18.3,19.9,34.4,32.9,34.4,32.9,56.3,48.3,73.2,60.7,83.6,55.1,94.5,60.6,72.5,34.1,84.2,47.8,22.8,27.7,22.8,27.7,2.1,3.2,4.9,1.6-4.2-11.1-4.2-11.1-10-12.6-6.9-17.8,13.4-10.1,20-17.6,94.1-73.4,136.4-119.3S933.5,548,933.5,548,1023.2,494,1062.6,532.7Z"/><path class="cls-1" d="M116.4,490.2S13.5,384,9.6,374.6s-.6-9.1-.6-9.1,5.1-1,11.6,3.5,21,17.9,21,17.9l62.9,52.4,45.8,38.5s10.6,8.6,13,6.8-4.3-12.1-4.3-12.1L84.9,396.4,19,329.6S-6.4,297,4,292.3s42.9,15.4,42.9,15.9,68.4,49,69.7,55,72,62.4,72,62.4L236,474"/><path class="cls-1" d="M1031.6,198.6s-49.9,80.9,4.7,147.8,90.2,197.1,116.2,206.4,23.4,33.6,65,68.7c18.5,15.8,28.3,53.2,49.8,41.2s11.5-68.4,13.9-79.8-15.2-46.4-15.2-46.4,9.5,2.5,30.8-28.6,0-64.5,0-64.5-19.1-11.9-37.4-57.9-3.5-33.7-14.7-68.1-13.6-95.3-18.6-126.9-25-41.7-34-65-54-68.4-54-68.4-7.5-14.4-71.3-42.2-100.7-3.5-100.7-3.5-15.7,3.5-25.2,4.9S935.2,29,935.2,29l9.1-1.7s15.3-5.2,21.5,2-3.6,18.5-3.6,18.5S956,59.7,958,66.4s10.2,9.9,14.6,17.2,2.6,18.2,2.6,18.2,5.5,38.4,27.7,26.7,28.9-9.8,28.9-9.8,26-2.9,31.7,24.5-31.9,55.4-31.9,55.4c-9.5,10.5-13.2,75.5-13.2,75.5.8,72.9,41.4,104.5,72.5,139.2S1158,570.8,1158,570.8l15,40.3a13.9,13.9,0,0,1-.4,10.6c-7.5,16.6-10.1,12.4-17.8,17.6-3.6,2.4-22.8,14.3-22.8,14.3s-21.5,12.4-25.7,14.4-19.2,18.1-24.7,23-24.4,16.3-24.4,16.3c-14.5,13.6,3.2,7.2,3.2,7.2s25.6-17.6,30-22.2,30.5-19.8,30.5-19.8,44.2-32,54-38.7,17.3,6.2,17.3,6.2,18.5,25.9,3.1,53.4-2.6,42.9-2.6,42.9c17.7,28.3,11.4,25.7,4.3,36.7s-3.3,8.9,3.3,20.3-12,13.3-12,13.3-65.4,11.7-103.1.7-46.9-3.6-46.9-3.6c7.8,16.5,84.6,14.6,84.6,14.6s31.6,5.7,52.4,1,25.3,8.8,25.3,8.8,14.3,24.7,1.3,27.7-10,12.4-10,12.4,38.3,32.8-12.3,36.9-108.3-17.2-108.3-17.2-33.4-13.9-49.1-18.3-13.7,2.3-13.7,2.3c13.9,20,114.5,41.7,114.5,41.7s24.7,3.1,36.8,1.9,14.8,1.3,14.8,1.3,2.5,3.2,1.6,12,6.2,18.9,6.2,18.9c14.1,29.8,8.7,34.8-1.2,49.3s-.6,26.1-.6,26.1,25.6,32.9,18,35.5-2.3,9.1-2.3,9.1c20.6,11.5,8.5,20.9,8.5,20.9-28.2-27.6-89.5-32-89.5-32s-122.8-10.1-152.1-33.2-124.5-51.3-124.5-51.3-6.7-2.6-7.5-.6,15.6,12.3,15.6,12.3S945,1016,979,1039.3s123,26.4,123,26.4,104,18.5,109.3,31.2-24.9,19.6-24.9,19.6c-117.2,21.2-205.3-23.4-226.4-28s-54-15.5-93.8-30.7-87.1-53.7-87.1-53.7-60.8-54.4-68.2-60-5.1,3.1-5.1,3.1c132.7,132,182.4,129.4,285.9,161s198.1,15,198.1,15c2,32.8,37.1,100.5,37.1,100.5s28.6,34.5,38,114.2-28.3,130-28.3,130-25.4,48.7-175.9,80.1-453.7-73.1-494.1-85.9-32.4-29.1-32.4-29.1,5.7-21.6,8.1-36.7c1.3-8.6,5.5-13,.7-13.9-2.5-.5-5,12.1-5,12.1s-20.4,99.7-22.1,102.1"/><path class="cls-1" d="M1521.9,510.9"/></svg>