<svg id="Layer_2" data-name="Layer 2" xmlns="http://www.w3.org/2000/svg" viewBox="0 0 1521.9 1577.5"><defs><style>.cls-1{fill:none;stroke:#231f20;stroke-miterlimit:10;stroke-width:8px;}</style></defs><title>birth3</title><path class="cls-1" d="M1076.7,590.3s52.1,30.6,16.6,100.2-74.5,103-74.5,103-60.9,47.6-163.3,110.3-171.9,90.8-171.9,90.8-19.4,1.8-30.3,8.2-26.7,14.2-60-6.9S422.2,841.2,374.2,764.4c0,0-31.5-54.5-64.9-58.2s-67.2-31.9-67.2-31.9-7.2-11.3-7-18.4a12.7,12.7,0,0,0-5.2-10.7s-8.3-6-9.5-14.1.6-17.3-7-22.6-38.1-18.3-39.3-37.3,16.3-27,24.2-19.3,5,8.6,11.7,9.2,20.5-4.3,20.5-4.3,18-1.1,25.4-.9,6.9-9.9,46.6,18.7c0,0,12.2,5.7,6.4-1.4s-15.2-29-11-38.2,24.6,4.7,24.6,4.7,13.7,9.8,26.9,36.6,27.7,61.6,28.8,66.5,7.9,12.2,17.2,18.8,32.5,31,32.5,31,53,45.5,68.9,57.2,78.8,51.9,89,57.1,68.4,32.1,79.4,45,37.9,46.4,37.9,46.4,16.7,25.6,4.6,1.6c-1.4-2.8-20.4-30.8-20.4-30.8s-9.4-12-6.5-16.9,12.6-9.5,18.8-16.5,88.7-69.2,128.5-112.4S955,604.7,955,604.7,1039.6,553.8,1076.7,590.3Z"/><path class="cls-1" d="M1071,209.2c-11.5-6.4-17.8-11.2-42.7,5.2-31.4,20.7-36.1-8.4-36.7-29.9s-19.1-22.4-24-39.3,1.6-15.1,0-19.6-10.8-7.4-17.8-8.9a18.6,18.6,0,0,0-10.7.7c-14.5,5.3-55.3,24.7-68.4,70.2,0,0-1.4,5.4-14.9,15.3-7.4,5.3-49.5,21.8-46,20.2,0,0-10.6,10.3,11.2,23.9,0,0,5.8,6.3,3.2,10.8s-9.2,9.4-9.2,9.4-1.8,9.9-.2,12.7-6.1,8.6-6.1,8.6-6.5,7.2.1,15.7c0,0,3.8,5.8-7.6,16.3s.2,29.3,7.1,33.6,73.1,44.4,73.1,44.4,24.8,24.8,28.5,56.1,4.8,65.2,4.8,65.2l2.8,61.3s1.5,8.8-4.9,11.6-1.4-10.8-1.4-10.8l-3.1-57.2s1.3-7.1-6.1-11.7-39.8,10-39.8,10-43.5,34.3-61,60.2-39.8,51.6-43.1,68.6,15.6,19.9,15.6,19.9,55.9,6.6,61.4,26.6-10.1-1.9-10.1-1.9-1.7-6.8-42-14.6-98.7-30-98.7-30-54.4-18.1-67.3-13.5-28.5,10.7-44.2.3-140.8-52-140.8-52l-42.3-11.9s-7-2.7-9.5.3-.7,12,3.6,16.8,51.5,51.1,70.1,63,92,44.7,92,44.7l121.9,48.4s38.9,12.9,32.5,17.8-34.3,0-34.3,0l-61-20.9s-35.5-8-40.4-15.7-33.8-19.3-33.8-19.3l-71.4-34.6s-61.6-27.4-95.3-76a28.2,28.2,0,0,1-2.1-3.8c-3.2-7.8-15.5-36.5-25.5-49.3-11.6-15-32.9-19.7-36.8-18a14.3,14.3,0,0,1-7.6,1l-38.8-39.8s-66.7-53.1-67.9-58.7-65.6-51.5-65.6-51.9-30.7-19.3-40.5-14.9,14.1,35.1,14.1,35.1l62.1,63,69.8,71.6s6.4,9.8,4.1,11.5-12.2-6.5-12.2-6.5L174,502.3l-59.3-49.4S101,440.3,94.9,436,84,432.8,84,432.8s-3.1-.2.6,8.5,94.7,102.8,94.7,102.8,12.5-3,19,7.8"/><path class="cls-1" d="M1047.5,275.5s-47,76.2,4.4,139.3,85,185.6,109.5,194.4,22.1,31.7,61.2,64.8c17.5,14.8,26.7,50,47,38.8s10.8-64.5,13.1-75.2-14.3-43.7-14.3-43.7,8.8,2.3,29-27,0-60.8,0-60.8-18-11.2-35.3-54.5-3.2-31.8-13.9-64.2-12.7-89.8-17.4-119.5-23.6-39.4-32.1-61.3-50.9-64.4-50.9-64.4-7-13.6-67.1-39.8-94.9-3.3-94.9-3.3-14.8,3.3-23.7,4.6-5.4,11.9-5.4,11.9l8.5-1.5s14.4-4.9,20.3,1.9-3.4,17.4-3.4,17.4-5.8,11.3-4,17.5,9.6,9.4,13.8,16.2,2.5,17.2,2.5,17.2,5.2,36.2,26,25.1,27.3-9.2,27.3-9.2,24.5-2.7,29.8,23.1-30,52.2-30,52.2c-9,9.8-12.5,71.1-12.5,71.1.8,68.7,39,98.5,68.4,131.2s63.2,148.4,63.2,148.4l14.1,37.9a13.1,13.1,0,0,1-.3,9.9c-7.1,15.8-9.5,11.8-16.9,16.7-3.3,2.3-21.4,13.5-21.4,13.5s-20.2,11.7-24.2,13.5-18.1,17.1-23.3,21.8-23,15.3-23,15.3c-13.7,12.8,3.1,6.7,3.1,6.7s24.1-16.5,28.2-20.8,28.8-18.7,28.8-18.7,41.5-30.2,50.8-36.5,16.3,5.8,16.3,5.8,17.5,24.5,3,50.4-2.5,40.4-2.5,40.4c16.7,26.6,10.7,24.2,4,34.6s-3.1,8.4,3.2,19.1-11.4,12.6-11.4,12.6-61.6,11-97.1.6-44.2-3.4-44.2-3.4c7.4,15.5,79.7,13.8,79.7,13.8s29.7,5.3,49.4.9,23.9,8.3,23.9,8.3,13.3,23.3,1.2,26-9.5,11.7-9.5,11.7,36.1,30.9-11.6,34.8-102-16.2-102-16.2-31.5-13.1-46.3-17.2-12.9,2.2-12.9,2.2c13.1,18.8,107.9,39.2,107.9,39.2s23.3,3,34.6,1.8,14,1.3,14,1.3,2.4,2.9,1.6,11.3,5.8,17.8,5.8,17.8c12.7,26.8,8.6,32.3.1,44.6a4.2,4.2,0,0,1-3.5,1.9c-15.5.1-30.7.7-45.1-4.7-4.7-1-8.5-4.7-13.2-6.6-14.1-4.7-28.3-5.7-43.3-8.5-2.9,0-5.7-.9-8.5,1s-1,6.5.9,7.5c11.3,4.7,23.6,2.8,34.9,8.5,8.5,4.7,17,11.3,27.3,13.2,3.8.9,6.6-1.9,10.4-1.9,11.3-1,22.6.9,33.8,1.9h.9a20,20,0,0,0,3.6,14s24.1,31,16.9,33.5-2.1,8.6-2.1,8.6c9.2,5.1,10.7,8.6,10.1,11.5a4.2,4.2,0,0,1-3,3.2h-.2a11.5,11.5,0,0,1-7.6-2.2c-28.7-19.6-75.6-23.1-75.6-23.1s-115.7-9.4-143.4-31.2-117.3-48.3-117.3-48.3-6.3-2.5-7-.7,14.7,11.7,14.7,11.7,92.5,30.3,124.5,52.3,115.9,24.8,115.9,24.8,98,17.5,103,29.5-23.4,18.4-23.4,18.4c-110.5,20-193.5-22-213.3-26.4s-50.9-14.6-88.4-28.9-82.2-50.6-82.2-50.6-57.2-51.3-64.2-56.5-4.8,2.9-4.8,2.9c125,124.4,171.9,121.9,269.4,151.7s186.6,14.1,186.6,14.1c1.9,30.9,35,94.7,35,94.7s27,32.5,35.8,107.6-26.6,122.5-26.6,122.5-24,45.8-165.8,75.5-427.5-68.9-465.5-81-30.6-27.4-30.6-27.4,5.4-20.4,7.7-34.6c1.2-8.1,5.2-12.3.7-13.1-2.4-.4-4.8,11.4-4.8,11.4s-20.5,93.5-20.8,96.2c0,0-7.2,47.6-18.6,79.1"/><path class="cls-1" d="M237.7,1577.5c-2.9-78.9,11.5-204.8,11.5-204.8l25.7-134.5s8.9-77.2,41.4-99.6,85.5-16.2,85.5-16.2L602.1,1153a1.9,1.9,0,0,1,1.7,1.9"/><path class="cls-1" d="M602.1,1153s-6.4-95,45.3-145c0,0,3.4-1.8,5.5,0s-9.7,14.6-9.7,14.6-36,45.5-30.5,123.1c0,0-4.5,28.9,44.2,45.7,33.5,11.5,246.2,42.1,286.8,50.8,43.9,9.4,0,8,0,8s-258.5-39.7-379-49.1-137.3,17.6-169.2,77.3-28.6,299.1-28.6,299.1"/></svg>