<svg id="Layer_2" data-name="Layer 2" xmlns="http://www.w3.org/2000/svg" viewBox="0 0 1307.8 1581">
<defs><style>.cls-1{fill:none;stroke:#231f20;stroke-miterlimit:10;stroke-width:8px;}</style></defs><title>birth3</title><path class="cls-1" d="M607,976.1" transform="translate(0)"/><path class="cls-1" d="M570.1,1122.2" transform="translate(0)"/><path class="cls-1" d="M570.1,1122.2" transform="translate(0)"/><path class="cls-1" d="M1062.6,532.7s55.3,32.6,17.6,106.4-79.1,109.3-79.1,109.3-64.6,50.5-173.3,117-182.4,96.5-182.4,96.5-20.6,1.9-32.1,8.7-28.4,15-63.8-7.4S367.9,799.1,317,717.5c0,0-33.5-57.8-68.9-61.8s-71.3-33.8-71.3-33.8-7.7-12-7.5-19.6a13.7,13.7,0,0,0-5.5-11.3s-8.8-6.3-10.1-15,.7-18.3-7.4-24-40.4-19.4-41.7-39.5,17.3-28.7,25.7-20.5,5.3,9.1,12.4,9.7,21.8-4.5,21.8-4.5,19-1.2,27-1,7.2-10.5,49.4,19.8c0,0,12.9,6.1,6.8-1.4S231.5,483.8,236,474s26.2,5.1,26.2,5.1,14.5,10.4,28.5,38.8,29.4,65.4,30.5,70.6,8.4,12.9,18.3,19.9,34.4,32.9,34.4,32.9,56.3,48.3,73.2,60.7,83.6,55.1,94.5,60.6,72.5,34.1,84.2,47.8,40.3,49.3,40.3,49.3,17.8,27.1,4.8,1.6c-1.4-2.9-21.6-32.7-21.6-32.7s-10-12.6-6.9-17.8,13.4-10.1,20-17.6,94.1-73.4,136.4-119.3S933.5,548,933.5,548,1023.2,494,1062.6,532.7Z" transform="translate(0)"/><path class="cls-1" d="M1056.5,128.2c-12.1-6.8-18.8-11.8-45.3,5.6-33.3,21.9-38.3-8.9-39-31.8S952,78.3,946.8,60.3s1.7-16.1,0-20.8-11.5-7.8-18.9-9.5a21.1,21.1,0,0,0-11.4.8c-15.4,5.7-58.7,26.2-72.6,74.5,0,0-1.5,5.7-15.8,16.2-7.8,5.7-52.5,23.2-48.8,21.5,0,0-11.2,11,11.9,25.4,0,0,6.2,6.6,3.4,11.5s-9.8,9.9-9.8,9.9-1.9,10.5-.2,13.5-6.4,9.2-6.4,9.2-7,7.5,0,16.6c0,0,4.1,6.1-8,17.3s.2,31.1,7.5,35.7l77.6,47s26.3,26.4,30.3,59.6,5,69.2,5,69.2l3.1,65s1.5,9.4-5.2,12.4-1.6-11.5-1.6-11.5l-3.2-60.7s1.3-7.6-6.5-12.4-42.3,10.6-42.3,10.6-46.1,36.4-64.7,64S728,580,724.4,598,741,619.2,741,619.2s59.3,6.9,65.2,28.1-10.8-1.9-10.8-1.9-1.7-7.3-44.5-15.5S646.1,598,646.1,598s-57.7-19.2-71.4-14.3-30.3,11.4-46.9.3-149.5-55.2-149.5-55.2l-44.9-12.7s-7.4-2.8-10.1.4-.6,12.8,3.9,17.9,54.7,54.2,74.4,66.8,97.6,47.4,97.6,47.4L628.7,700s41.2,13.7,34.4,18.9-36.4,0-36.4,0L562,696.7s-37.8-8.5-43-16.6-35.8-20.5-35.8-20.5l-75.7-36.8s-65.5-29-101.2-80.6a23.2,23.2,0,0,1-2.2-4.1c-3.5-8.2-16.6-38.7-27.1-52.3-12.3-15.8-34.9-20.9-39.1-19.1a15.2,15.2,0,0,1-8,1.1l-41.3-42.2s-70.7-56.4-72-62.4-69.6-54.6-69.7-55S14.4,287.7,4,292.3s15,37.3,15,37.3l65.9,66.8L159,472.5s6.8,10.4,4.3,12.1-13-6.8-13-6.8l-45.8-38.5L41.6,386.9s-14.5-13.4-21-17.9S9,365.5,9,365.5s-3.3-.2.6,9.1S110.2,483.7,110.2,483.7s13.2-3.2,20.1,8.3" transform="translate(0)"/><path class="cls-1" d="M1521.9,510.9" transform="translate(0)"/><path class="cls-1" d="M1031.6,198.6s-49.9,80.9,4.7,147.8,90.2,197.1,116.2,206.4,23.4,33.6,65,68.7c18.5,15.8,28.3,53.2,49.8,41.2s11.5-68.4,13.9-79.8-15.2-46.4-15.2-46.4,9.5,2.5,30.8-28.6,0-64.5,0-64.5-19.1-11.9-37.4-57.9-3.5-33.7-14.7-68.1-13.6-95.3-18.6-126.9-25-41.7-34-65-54-68.4-54-68.4-7.5-14.4-71.3-42.2-100.7-3.5-100.7-3.5-15.7,3.5-25.2,4.9S935.2,29,935.2,29l9.1-1.7s15.3-5.2,21.5,2-3.6,18.5-3.6,18.5S956,59.7,958,66.4s10.2,9.9,14.6,17.2,2.6,18.2,2.6,18.2,5.5,38.4,27.7,26.7,28.9-9.8,28.9-9.8,26-2.9,31.7,24.5-31.9,55.4-31.9,55.4c-9.5,10.5-13.2,75.5-13.2,75.5.8,72.9,41.4,104.5,72.5,139.2S1158,570.8,1158,570.8l15,40.3a13.7,13.7,0,0,1-.3,10.5c-7.6,16.8-10.1,12.5-17.9,17.7-3.6,2.4-22.8,14.3-22.8,14.3s-21.5,12.4-25.7,14.4-19.2,18.1-24.7,23-24.4,16.3-24.4,16.3c-14.5,13.6,3.2,7.2,3.2,7.2s25.6-17.6,30-22.2,30.5-19.8,30.5-19.8,44.2-32,54-38.7,17.3,6.2,17.3,6.2,18.5,25.9,3.1,53.4-2.6,42.9-2.6,42.9c17.7,28.3,11.4,25.7,4.3,36.7s-3.3,8.9,3.3,20.3-12,13.3-12,13.3-65.4,11.7-103.1.7-46.9-3.6-46.9-3.6c7.8,16.5,84.6,14.6,84.6,14.6s31.6,5.7,52.4,1,25.3,8.8,25.3,8.8,14.3,24.7,1.3,27.7-10,12.4-10,12.4,38.3,32.8-12.3,36.9-108.3-17.2-108.3-17.2-33.4-13.9-49.1-18.3-13.7,2.3-13.7,2.3c13.9,20,114.5,41.7,114.5,41.7s24.7,3.1,36.8,1.9,14.8,1.3,14.8,1.3,2.5,3.2,1.6,12,6.2,18.9,6.2,18.9c13.5,28.4,9.2,34.3.2,47.4a5.1,5.1,0,0,1-3.8,2c-16.4.1-32.6.7-47.8-5-5-1-9-5-14-7-15-5-30-6-46-9-3,0-6-1-9,1s-1,7,1,8c12,5,25,3,37,9,9,5,18,12,29,14,4,1,7-2,11-2,12-1,24,1,35.8,2h1a21.8,21.8,0,0,0,3.8,14.9s25.6,32.9,18,35.5-2.3,9.1-2.3,9.1c9.8,5.5,11.3,9.2,10.8,12.3a4.7,4.7,0,0,1-3.3,3.4h-.1a13,13,0,0,1-8.1-2.3c-30.5-20.9-80.3-24.5-80.3-24.5s-122.8-10.1-152.1-33.2-124.5-51.3-124.5-51.3-6.7-2.6-7.5-.6,15.6,12.3,15.6,12.3S945,1016,979,1039.3s123,26.4,123,26.4,104,18.5,109.3,31.2-24.9,19.6-24.9,19.6c-117.2,21.2-205.3-23.4-226.4-28s-54-15.5-93.8-30.7-87.1-53.7-87.1-53.7-60.8-54.4-68.2-60-5.1,3.1-5.1,3.1c132.7,132,182.4,129.4,285.9,161s198.1,15,198.1,15c2,32.8,37.1,100.5,37.1,100.5s28.6,34.5,38,114.2-28.3,130-28.3,130-25.4,48.7-175.9,80.1-453.7-73.1-494.1-85.9-32.4-29.1-32.4-29.1,5.7-21.6,8.1-36.7c1.3-8.6,5.5-13,.7-13.9-2.5-.5-5,12.1-5,12.1s-21.8,99.2-22.1,102.1c0,0-7.6,50.5-19.7,83.9" transform="translate(0)"/><path class="cls-1" d="M172.1,1580.5c-3-83.7,12.2-217.4,12.2-217.4l27.3-142.7s9.5-82,43.9-105.7,90.8-17.2,90.8-17.2L558.9,1130a2.1,2.1,0,0,1,1.8,1.9" transform="translate(0)"/><path class="cls-1" d="M558.9,1130s-6.8-100.9,48.1-153.9c0,0,3.6-1.9,5.8,0s-10.3,15.5-10.3,15.5-38.2,48.3-32.4,130.6c0,0-4.7,30.7,47,48.5,35.5,12.2,261.2,44.7,304.3,53.9,46.7,10,0,8.5,0,8.5s-274.3-42.1-402.3-52-145.7,18.6-179.5,81.9-30.4,317.5-30.4,317.5" transform="translate(0)"/><path class="cls-1" d="M205.1,854.5" transform="translate(0)"/><path class="cls-1" d="M241.2,458.6" transform="translate(0)"/></svg>