<svg xmlns="http://www.w3.org/2000/svg" viewBox="0 0 1521.9 1580.5"><defs><style>.cls-1{fill:none;stroke:#000;stroke-miterlimit:10;stroke-width:7px;}</style></defs><title>carrier</title><g id="carrier"><path class="cls-1" d="M301.6,904.4s-31.1,128.6-32.3,164-15.1,163.3-15.1,163.3-7.5,144.6,0,181.3,7.9,48.2,7.9,48.2,4.3,21.6,27.3,22.3,31.7,0,31.7,0l130.6,22.3s101.7,19.9,138.1,23,164.8,8.6,164.8,8.6,39,12,94.3,0,101.6-17.2,101.6-17.2l64.2-10.8,47.5-5.8s39.8-18.9,44.3-20.8,31-14.4,35.3-20.9-18.8,7-18.8,7-51,21.3-88.1,23.7c0,0,112.6-26.6,128.7-47.5,0,0,14.2-8.1,7.6-17.6s-34.9,1.1-34.9,1.1l-65.5,28.8s39.7-22.6,56.8-40.3,30.3-30.2,30.3-30.2,2.2-6.9-7.2-7.6-22.8,1-33.8,10.4-35.3,19.1-35.3,19.1-79.8,11.4-114.6.6-21.9-25.5-21.9-25.5,17.5-24.7,34.6-30.7,36.2-36.2,36.2-36.2,4.4-12.4-3.6-21.2-31.3,7.5-31.3,7.5-7.5,3.7-13.3,4.3-27.9,22.9-27.9,22.9-24.1,19.4-36.7,25.6-65.1,57.1-65.1,57.1l-24.6,21s-38.3,10.8-108-3.9-121.1-21.7-146.3-34.9S413.5,1338,413.5,1338s-28.4-8.4-44.3,2.8-20,14.8-20,14.8-2.9.1-1.2-2.3,22.4-30.8,64.5-30l5.4-69.3s9-54,18.7-80.9,22.2-122.2,22.2-122.2,3.8-52.3.5-106.3c0,0-2.2-15.2,2-14.5s5.7,21.5,5.4,56.8l-1.8,25.9s32.3-17.5,38.5-12.6-37.4,16.7-39.6,31.3-4.6,89.5-4.6,89.5,9.7,7.6,7.5,10.4-11.9,1.4-11.9,1.4-20.9,74-18.2,85.7c0,0,30.2-6.9,32-.3s-34.9,10.4-34.9,10.4-6.2,5.4-4.3,12.6,12.6,12.6,12.6,12.6l-.2,76.4c3.2,6.3,32.3-8,32.3-8s34.8-18.7,41.4-18.3,8.8-2,10.1,4-23.8,16.5-23.8,16.5l-45.3,14s-6.6,3,.4,7.2"/><path class="cls-1" d="M307.9,904.4s204,17.5,220.2,3c0,0-2.2-2.4-16.9-.7s-163.7-.1-209.3-38.5c0,0,11.3-28.1,8.6-39.8,0,0,57.1,35.9,130.7,45.7s80.2,6.7,80.2,6.7S375.7,864,315.2,818.6c0,0,15.2-76.5,43.4-98.9s67.6-39.6,67.6-39.6,105.4,55.9,157,110.1c0,0,4.6,5.1,7.2,3.2S496,668.7,490.5,665c0,0,11.5-20.9,24.3-24.4,0,0,25.3,6.3,30.8,5.9s38.6-20.9,41.7-19.5,51.1,50.7,80.3,119.4c0,0,3.8,8.7,5.8,8.3s-6.6-42-61.1-124.4c0,0-2.8-1.3,5.2-3.3s33-21.2,33-21.2,34.7-41,38.8-44.5,47.2-43.4,47.4-146.2c0,0-19.5-29.9-19.2-32.2s-6.4-18.5-1-38.3S763,307.7,763,307.7s27.4-4.8,32.8,19,8.2,46,16.9,56.2,20.8,21.9,47.4,10.9,45.7-20.4,81.2-17.6c0,0,38.5-15.6,42.6-15.3s24.5-3.4,24.5-3.4,26.5-13.4,35-20.4,29.4-7.4,31.2,14.8,6.4,52.3-9,81.1c0,0-8.9,24.6-4.3,35.9s-17.3,16.3-17.3,16.3-8.6,4-10.5,19.7-20.6-6.2-20.6-6.2,9.1-24.5,36.4-28.3a20,20,0,0,1,9.7-.7"/><path class="cls-1" d="M1022.5,510.6s-5.3,11.5-6.8,30.2"/><path class="cls-1" d="M1012.9,498.7s-8.1-9.2-3,84c0,0,2.3,12.8-31.2,12,0,0-22.6.4-20.3,24.7l-.2,5.2s-10.5,4.9-17.2,4.5c0,0,2.7,16.9-10.3,17.8s-15.6,0-15.6,0-5.2,4.2-7,8.8-9.6,27.4-39.1,29-68.2-34.6-68.2-34.6-35.4-33-39.8-47.2"/><path class="cls-1" d="M514.8,640.6s27.8-25.1,42.7-65.4,33.1-68.3,33.1-68.3,10.5-37.6,22.3-62.6,35.2-66.9,34.5-80.5,38.8-117,67.1-135.3S761,181.8,761,181.8s72.7-50.9,98.1-54,134,23,134,23,15.6,3.9,59.7,43.2,54,46,54,46,18,22.3,26.4,67.3,15.8,54.5,15.1,80.4-4.4,78.4-4.4,78.4-29.2,59.3-58.9,86.4-78.4,66.6-75.6,98.5-37.4,6.5-37.4,6.5-57.3-8.9-60.4,12.9c0,0,7.4,21.6,8.4,104.6s0,138.2,0,138.2.2,9.2,2.9,9.9,11.7-183.9-.5-245c0,0,5.3-12,16.5-10.8s21.6-3.6,21.6-3.6,18,1.7,18,15.8,2.9,72,2.9,72-.3,16,2.9,15.8,2.8-37.4,2.8-37.4l-1.2-54.8s50.6,11.6,87.1,33.8,17.2,16.2,17.2,16.2-93,16.3-130.2,107.2c0,0-12.4,44.6,17.3,72.1"/><path class="cls-1" d="M991,795.1s20.6-18.7,35.9-25.2,0,25.2,0,25.2-11.7,21.8,17.3,15.1"/><path class="cls-1" d="M1182.8,1432.7s41-28.8,43.2-41.8c0,0-56.2-56.5-61.2-70.5s51.6,57.8,64,56.2,38.4-76.4,38.4-76.4,10.5-40.7,12.2-61.5,6.5-57.6,6.5-57.6,8.6-84.6,7.2-98.5c0,0-28.5-30-52.3-18.5s-92.5,43.2-92.5,43.2-50.1,34.5-112.2,27.3c0,0,32.9,6.5,75.7,5.5s88.7-2.8,88.7-2.8,11.4-.5,12,3.8-31.5,11.7-109.3,6.7-105.5-18.2-105.5-18.2-9,0-6.7,4.8,101.3,62,142.9,75.3c0,0,16,7,12,12s-143.6-64.8-166.4-86.4c0,0-30.6-1.2-31.7,5.8s29.3,21.1,29.3,21.1,88,60.1,111.2,84.9,4.3,15.3,4.3,15.3-111.7-78.8-126.1-92.5a375.9,375.9,0,0,0-31.4-26.4s-3.6-3.8-6.3-1.6,5.2,10.2,5.2,10.2l76.6,82.5s28.6,31,28.3,36-12-6.3-12-6.3l-106.7-117s-41.5-11.8-43.4-15.1-3.9,4,3.6,15.3,55.9,95.5,60.9,112.8,11.3,30.7,8.3,32.7-45.9-112.6-85.9-161.9c0,0-9.9-15.1-14.8-17.9s-5.4-17.4-8.6-20.9,16.9,4,16.9,4,30.1,4.4,46.7-6.5,49.7-27.8,72.3-49.8,53.7-52.1,52.9-60.4-24.8,19.1-24.8,19.1-51.9,48.8-71.9,62-37.1,34.5-83.5,28.7c0,0-15.1-1-16.9-7s-.3-16.8-1.9-18.5,4.7-4.9,7.4,11.7,61-53.7,61-53.7,37.8-36.2,46.9-60.2,93.2-127.5,93.2-127.5l87.9-110.6s71.8,12.6,94.5,100.2l2.2,45.1s-5.4,5.5-11.4-6.8-31.6,4.3-31.6,4.3-5.9,14.3-15.5,21.6-39.6,26.6-39.6,26.6-40.1,21.3-43.5,21.6-20.4,10.9-22.3,15.8,9.4,0,9.4,0,8.4-10.9,29.1-12.5,58.7-3.6,69.4-5.1,64.7-7.5,66.9-11.3-7.5-34.4-7.5-34.4,2.5-6.9,4.6-3.2,10.5,33.8,10.5,33.8,8,51.9,16.7,64.6,30.6,75.8,32.6,92.1"/><path class="cls-1" d="M701.1,1394.8c-10.2-2.1-90.4-1-90.4-1s-3.7-2.7,0-12-8.2-12-3.4-24.4,26.4-81.1,26.4-81.1-16.4,14.9-24.8,14.6-13.9-6.7-13.9-6.7l1-26.4h0s-22.3,1.5-28.8,7.1-6.3-28.1-6.3-28.1l-.4-29.7s12.3-15.3,15.4-40.1,14.7-80.4,19.6-115.6,46.8-117.5,46.8-117.5,18.3-27.3,51-29.5,39-15.9,39-15.9,6-6,16.8-6.2,33.1,0,33.1,0,3.4.3-5.7,8.2-8.7,25.4-8.7,25.4l-.8,80.9s-3.8,25.1-9.9,37.3c-.2.4.2.9.6.7,4.6-1.7,8.9,7.2,33-1.4,0,0,13.1,17.7,20.1,21.1s19.3,9.4,19.3,9.4,4.8,15,18.8,3.2,33.9-32.6,33.9-32.6l19.6-25.9s-18.4,13.9-26.4,11.5c0,0,44.2-24,45.6-34.5s-3.4-50.9-3.4-50.9S902.1,985.1,888,986s20.2-15.5,23.1-47.9-15.4-33.7-15.4-33.7-34.8,23.8-42.2,23.6-14.9,11.2-23.7,12.5-54.1-3-58.3,11c0,0-2.6-9.4,13.6-13.7s41.6-.6,45.5-4,19-11.8,24-12.1,36.8-22.5,36.8-22.5,14.4-74.6-25.4-99.7c0,0-4.9-6.2-10.8-5.7s-39.6,5.6-68.7,0-76.7-.8-76.7-.8-4.5,1.1-5.5-2,15.6-5.6,15.6-5.6,17.3-3.8,45.6,0,53.3,8,66.1,7,14.7-2.1,14.7-2.1,4.6-.3,2.6-5.3-10.2-14-24.6-20.1-31.7-12.4-51.2-11.9-56.8,3.8-56.8,3.8-20.9,9.7-31,9.8-42,15.3-42,15.3-32.1,16.6-45.8,29.5-40.3,41-40.3,41-20.8,24.7-22.3,35.3,0,38.8,0,38.8,10.2,13,12.7,10.6,19.8-55,71.2-70.9l41.7-21.9c8.8-4.6,78.2-20.2,121.9-14.9s86.3,6,81.3,25.9-10.8,36-10.8,36-4,.3-4-2.7"/><path class="cls-1" d="M607.3,1335.8H591l-9.3-7.4a8.6,8.6,0,0,0-10.1-2c-6,2.9-4.5,6-4.5,6l5.7,3.4s-15.3-7.8-18.3,3.1c0,0,1.3,2.2,8,2,0,0-18-1.7-19.3,5.8a7.7,7.7,0,0,0,1.5,5.5s9.1-6.4,16.8-1.9c0,0-19.1-1.8-18.4,5.1,0,0-.1,3.5,4.4,4,0,0,3.3-4.2,15.1-2.9,0,0-16,0-12.1,9,0,0,1.1,3.7,3.4,4.9s9.3,1.1,9.3,1.1,12.1,7.5,20.4,18.4,34.7,20.3,34.7,20.3,41.1,12.5,50.6,10.8c4.2-.7,10.9-5.9,17.2-11.4,7.9-7.1,15-14.8,15-14.8s10.5.8,3.9,6.7-12.9,8-14.2,10.1-1.3,6,6.5,7.2,12.1,3.5,16.5,4.3,23.7-1.7,27.6-10.6,13.1-1.4,11,3.1.3,7.6.3,7.6l21,1.8h8.7a100.6,100.6,0,0,0,6-27.3c.9-14.9,6-76.8,9.7-78.8s5.7.3,6.5,3.2-3.6,28.2-4,40.3-2.2,53.6-2.2,53.6.2,5.2,8.7,4,25.5-13,25.5-13,1.1-94-2.8-99.6c0,0,6.2.1,8.9,41.3s2.4,47.3,8.3,42.5,12.9-13.3,12.9-13.3.3-7.9-2.5-24.1a59.7,59.7,0,0,1,2.5-29.2l-2.8-54.6s17.3-24.5,17.6-27.7,5.9-17.5-5.5-40.1l1.1-26.2s-8.2-6.1-11.6-12.2-.3-21-1.8-22.7-8-6.1-8-6.1-1.9-18.6-8.4-24-.2-18.7-.2-18.7"/></g></svg>