<svg xmlns="http://www.w3.org/2000/svg" viewBox="0 0 1521.9 1575.7"><defs><style>.cls-1{fill:none;stroke:#000;stroke-miterlimit:10;stroke-width:7px;}</style></defs><title>other</title><g id="other"><path class="cls-1" d="M568.1,490.3s37.9-1.8,37.6,9.9,1,31.3,4.2,41.2,0,28,0,28-8.5,21.6-2.6,36.1,6.1,31.1-4.4,49.4-17.4,22.2-20.6,44.2.3,63.4.3,63.4-1.6,32.7-8.8,50.2-6.3,20.2-6.3,20.2,0,8.1-6.2,13.3-7.8,27.6-7.8,27.6,3.2,27.1-6.6,36.9-31,57.9-31,57.9-6.7,28.2-5.5,45.3-10.3,76.5-17.7,80-16.7-4.2-6.6-22.5S506,1032,506,1032s4-9.5-5.6-5.9-30.9,32.4-30.9,32.4-16.1,15.7-13.8,61.8,5.9,91.8,5.9,91.8l-4.4,52.3s13.1,35.8,18.4,42.8c0,0,101.1,56.9,162,13.7s72.9-48.4,72.9-47.5,34.1-6.9,52-19.2,44.2-14.7,44.2-14.7,21.4,6.9,48.7,24.3,42.6,16.3,42.6,16.3,44.6-31.2,43.5-46.4,33.6-22.5,34.7-12.9,16.3,31.6-18.8,47.6-36.3,20.4-36.3,20.4,24.7,12.5,26,11.3,67.6,25.4,109.8,29.1,88.7,7.5,93.6-11.5,2.6-100.9,2.6-100.9,4.2-133.5,22.5-135,11.8,73.8,11.8,73.8-8,124.2-10.7,133.8-2.4,31.3,11.8,33.1,48.6-1.4,48.6-1.4,16.7.5,27.3-44.8,18.1-151.1,18.1-151.1v-98s-.4-54.3-7.8-72.3,5.2-91,5.2-91,0-21.6-3.7-33.9,1.5-45.4,1.5-45.4-2.6-33.6-20.3-64.5-37.6-69.3-37.6-69.3-10.9-28.1-26.7-50.9-29.4-47.6-29.4-47.6a157,157,0,0,1-7-21.7c-3-12.1-13.7-33.6-13.7-33.6s-6.7-14.2-5.1-17.3-11.8-10.3-11.8-10.3-26.6,9.7-33.6,9.6-57.6,8.2-60.1,11.8-13.1-2-5.7,14.2.7,66.7.7,66.7-3.7,66.1,1.5,81.5,6.9,43.5,5.9,62.6-6.7,29.5-6.7,29.5-1.1,49.7-8.1,64.2-11.3,32.8-9.9,42.7.1,54.8-10.7,68.9-14,23-21,7-10.3-17.3-10.3-17.3-9.5,5.1-10.4,13.7,9,39.3-12.5,74.4-14.4,35.4-14.4,35.4,5.4,36-1.1,54.6-22.6,58.6-21.7,77.7,9.4,48.2-.8,72.6-43.7,29.5-43.7,29.5"/><path class="cls-1" d="M590.4,1336.8s-102.5,30.1-108.4,25.7-77.8-29.9-120.5-24.4h0c-18.3,4.3-42.1-9.4-42.1-9.4s-71.9-58.6-72-67.8c-6.5-24.6,49.4-25.4,49.4-25.4s20.6-3.7-22.5-24.3-31.4-101.4-31.4-101.4,2.7-70.8,2.3-75.6-6.8-85.6-5.6-85.8,1.1-55.8,3-56.8,9.6-49.8,9.6-49.8L264,788.4s9.2-23,19-27.4,12.9-21,12.9-21-2.6-26.6-.4-32.1,12.9-20.3,12.9-20.3,24.4-24.3,17-52.3-3.3-42-3.3-42-3.1-7.4,20.7-3,32.1-13.6,32.1-13.6,11.9-23.8,33.5-26.5,37.9-42.1,37.9-42.1,13.7-13.6,19.9-14.3,25.8-3,28,5.9l17.1-4.8s59.8-2.4,69.8,1.1"/><path class="cls-1" d="M1021.6,496.4s-22.1-1.8-31.3-4-29.6-15.9-36.5-15.2-22.5-4.4-22.5-4.4H897c-1.8,0-14.3-5.9-14.3-5.9s-31-.7-40.9,0-56.7-5.2-80.4-.3-96.3-10.5-96.3-10.5-23.4-11.5-34.7-2.2-29.9,22.6-24.7,46.3"/><path class="cls-1" d="M625.4,458.1l-18.7-31.2s1-13.5,12.2-12.6,30.5,2.5,83.3,28.1,49.7,18,49.7,18-2.7-3.4-35.7-18-57.1-20.1-34.9-40"/><path class="cls-1" d="M798,458.6c-1,.1-29.2,5-38.7,0s-35-16.1-40.2-29.1-2.2,6.6-2.2,6.6-7.1,11.7-20.2-11.1S676,391.1,676,391.1s-4.9-15.8,0-19.1,25.1,9.5,25.1,9.5,3.1-4.3-7.8-25.8-4.4-64.5-4.4-64.5,13-43.7,23.2-44.6c0,0,5.1-4.4,7.3-2.6s3.5,4.7,5,2.9,2.9-4.6,5.1-1.8,4.8-2.5,6.4-5.9,10.6-12.7,10.6-12.7,7.5,9.4,7,11.6,3.9-5.2,4.8-3.9.9,5.1,2.2,4.3,4-4.2,5.1-2.8-1.7,18.1-2.9,19.2,10.7-13.3,10.7-13.3,7.2-7.1,15.9-2.2,15.7-2,15.7-2l6.8-7.4s4.3-6,5.1-.2,2.9,8.3,6.5,2.4,4-12.3,6.1-11.2,7.8,7.8,8.6,7.3,3.9,2.7,10.2-3.1,16.9,2.2,16.9,2.2l23.2,19.5s11.2,18.2,12,30.4,4.3,35.8,7.4,41.1,13.6,34.8,10,47.5-2.9,11.5-18.1,40.5c0,0-30.5,36.9-47.3,47s-27,7.5-27,7.5S805.5,457.4,798,458.6Z"/><path class="cls-1" d="M915.8,372.8s16.2-21.1,22.8-17.4a17.3,17.3,0,0,1,9.3,14.3c.3,4.8,2.3,7,2.3,7s4.7,12.8-14.8,35.8-48.9,47.2-48.9,47.2-6.3,6,3.1,3.3S920,438.9,920,438.9s28.4-30,33.6-50.5,13.6,8.2,13.6,8.2,1,9.9,3.9,15.3,1.8,18.5,1.8,18.5-.8,15,4.3,15.4,22.1,17.9,22.1,17.9,13.1,12.2,13.7,29.3"/><path class="cls-1" d="M886,242s-24.5-46-75.5-59.5-97.3,23-97.3,23-33.6,25.4-41.1,48.5-7.4,59.3,0,87,8,29.5,8,29.5"/></g></svg>