<svg id="postpartum" xmlns="http://www.w3.org/2000/svg" viewBox="0 0 1521.9 1578.7"><defs><style>.cls-1{fill:none;stroke:#000;stroke-miterlimit:10;stroke-width:7px;}</style></defs><title>postpartum</title><path class="cls-1" d="M396,109.3l-9.7,159.6s-3.6,17.1,24.7-9.6,41.1-42.2,45.4-37.9-18.8,30.5-18.8,30.5L397,299.7s-25.1,46.4,2.9,56.5c3.1,1.2-3.9,129.7-.2,129,2.5,12.5-7.7,64.8-7.7,64.8S617.7,688.1,602.2,706.5,417.6,590.2,417.6,590.2s-16.9-19.6-31.4,4.8,7.4,36.9,7.4,36.9l98.5,65.8s8.7,7.2,4.2,10.5-115.1-69.1-115.1-69.1S360.9,632.4,347,660s-19.2,48.4-17.6,55.1,79.4,4,79.4,4-21.9,11.5-79.7,9.6S34.4,744.4,32.5,772.4s0,105.2,0,105.2,220.4,9.5,274.4,1.2,231.6-45,261.6-40.9,120.4,6.4,120.4,6.4,28.8-2.2,25.6-18.5,5.4-62.8,8.9-64.2,31-9.9,20.8,12.1-9.7,60.7-2.5,69"/><path class="cls-1" d="M294.1,887.9s-28.7,136.9-7.3,188.6c0,0,5.9,30.4,62.6-17.7s110.8-76.2,110.8-76.2,13.9-11.5,17.6-3.2-48.1,51.3-48.1,51.3-117.4,70.6-123.6,81.1-.8,43.3-.8,43.3l17.7,55.4s4.5,7.2,29.6-34.5,65-77.6,100.4-96.3,152.4-95.5,152.4-95.5,16.6-7.8,23.3-1.6-67.4,90.6-67.4,90.6-68.5,75.2-96.3,97.9S341.7,1272,342.2,1280.3s-1.6,74.6-1.6,74.6,1.9,42.8,37.7,7.2,137.2-170.9,137.2-170.9-112.3,153.3-122.7,169.3,8.8,37.4,43.3,15.8,129.2-182.7,129.2-182.7S721.5,963,776.3,909.5c0,0,15.6-12.3-17.6-36.9s-8.6-73-8.6-73,17.7-25.4,63.4-32.1,223.9-39.1,223.9-39.1l140.5-5.6h256.7s17.7.3,16.1,15.3-282.7-18.5-424.5,17.6c0,0,75.2-10.9,159.7-7.4s257.5-5.4,264.9,5-3.3,55.4-3.3,55.4l-605.1,16s-10.9,10.7,27.3,7.3,575.4-6.5,575.4-6.5,4.3,23.6,0,37S843.5,852,842.4,847.2s-24.9,10.7,8,16.9,591.2,21.1,593.9,17.2,4.5,32.8-2.4,34.9-622.2-21.1-627.6-26.5-29.7,7-.8,28.9S1011.2,1047,1050.3,1108s109.1,88.3,109.1,88.3,14.7,7.2,21.7-16.1-3.8-35.5,0-56.1-16.9-49-16.9-49-103-104.3-159.7-124.4c0,0-13.9-19,12.1-8.8s160.5,117.2,160.5,117.2,4.8,8.3,10.4-10.5-5.1-135.4-5.1-135.4"/><path class="cls-1" d="M1166.5,1197.2s-22.4,142-48,188.2"/><path class="cls-1" d="M740.5,1054.1s-8,247.1,6.4,333.1"/><path class="cls-1" d="M1145.3,722.8s-8.9-56.4-18-53.5-45.5.6-197.4,61c0,0-26,11.3-28.1,0s78.9-46.8,97.9-52.9,105.1-20.6,109.9-38.6-18.9-25.1-21.6-51.3-26-32.4-47.4-20.1S810.1,703,803.1,740.8c0,0-13.6-7.5-7.2-14.5s87.7-81.8,87.7-81.8-373.5,11.2-413.6-45"/><path class="cls-1" d="M883.6,644.5s154.9-87.2,161.3-101.2c24.4,7.3,2.4-272.5,7.5-282.4s0-53.8,0-53.8-14.7-31-40.9-40.1,32.1-9.6,32.1-9.6,26.5-4.9,7.2-41.8"/><path class="cls-1" d="M424,722.8s399.4-14.7,373.4,36.3"/></svg>