<svg id="Layer_2" data-name="Layer 2" xmlns="http://www.w3.org/2000/svg" viewBox="0 0 1521.9 1580.5"><defs><style>.cls-1{fill:none;stroke:#000;stroke-miterlimit:10;stroke-width:8px;}</style></defs><title>pregnancy</title><path class="cls-1" d="M510.5,1577.2s11.6-47.1,8.8-78-6.9-32.1,2.2-26.7,38.6,28.6,44.1,29.9,76.2,42.6,79.8,51.3,7.6-.6-2.9-12.8-56.4-51.2-78.7-60.6-81.5-46.6-81.5-46.6-53.6-41.9-85.4-142c-27.4-86.1,4.2-153.8,4.2-153.8s17.1-66,59.4-89.8S590.8,979.5,600,962.7c0,0,18.8-5.9,12.8-19.2s-61.9,33.4-61.9,33.4-77.1,64.1-88.3,58.4,22.1-29.9,22.1-29.9,25.8-14.7,29.2-36.3c0,0,7.1-10.4-15.9-28s-41.1-42-26.1-85.2,57.2-82,57.2-82,49.1-40.2,57.6-77.7,33.3-97.6,35.2-98.8,32-48.2,45.5-42.7-7.8,32.8-7.8,32.8-9.5,22.3-2.9,32-8.5,12.1-8.5,12.1-16.4,18.3-7.1,26.3,36.3-5.4,37.7-4.9,19-11.2,23.5-4.3-39.9,27-39.9,27-4.9,8.4-10.6,10l-20.7,6.4-27.8,12.8s-7.9,5.4-5.4,9.5,16.1,0,16.1,0l46.3-23.2,42.3-27.9L756,621s44.8-53.7,70.9-63.5,64.8-81.1,64.8-81.1,10.5-11.2,17.8-16.4,58.2-20.9,87.8-5,64.1,47.7,64.1,47.7l26.6,31.6s4.7,3.7,2.9,5.4-9.8-4.5-9.8-4.5-28.1-17.4-40.3-14,15.9,14.3,15.9,14.3,24.8,4.7,34.6,12.7,23.5,23,23.5,23l14.2,16.2s3.2,3.4,1.9,5-16.4-9.5-16.4-9.5-14.7-12.4-31.1-12.1c0,0-14.5-1.9-14.5.3s10.2,5.4,10.2,5.4,22.8,1.5,44.8,20,36.6,47,36.6,47l72.8,97.8s1.8,3.1-3.2,3.7-37.2-1.4-37.2-1.4-27-2.5-43.1,6.3-38.8,24.7-38.8,24.7-4.2,3.5-2.8,5,12.8-2.3,12.8-2.3l41.9-16.4s12.7-6.4,36.2-8,25.4-.8,25.4-.8,21.7-2,24.6,8.9l24.3,41.8,30.9,44.5s10.9,9.1,22.8,54.7c0,0,15.6,35.7,14.7,53.5,0,0,8.1,29-11.8,42.8a205.4,205.4,0,0,1-39.1,21.2s-25,12.3-26.4,13.1l-26.5,16.2-25.4,19.4-5.7,3.4s-6.2,6.2-5.9-9.5-25.8-43.6-25.8-43.6l-11.3-11.4s-1.8-2.3-3.6-.6,5.4,8.8,5.4,8.8,22.7,26.7,25.8,49.5c0,0-1.6,9.2-32,16.6s-44,8.7-44,8.7-59.8,11.6-65.8,14.9-98.6,18.5-98.6,18.5-18,8.5-29.1,13.1-22.4-4.7-59.8,28.4c0,0-57.3,68.7-82.5,85.6s-42.7,26.7-42.7,26.7l-25,19.6s-10.6,3.2-15.3-2.9,4-15.6,4-15.6,21.8-15.3,22.7-15.7,8.5-8.1,15.4-15.7,22.4-21.9,31.3-26.7c0,0,.2-.9-1.3-1.9s-11.2,7.1-11.2,7.1L731,1249.1s-12.4,12.6-13.9,13.5-15.8,11.4-15.8,11.4l-11.8,8.6-10.8,8.8-10.6,8.4-13.9,10.5s-13.2,5.3-17.4.5-2.6-12.3-2.6-12.3,4.2-11.7,12.3-17,22.7-18.2,22.7-18.2,18.1-12.8,21.4-16.9,15-17.8,18.3-20.2,10.9-10,10.9-10,6.5-2.6,3.8-5.7-15,7.3-15,7.3l-17.8,14.5-8,6-10.9,7.6-8.6,6.6s-20.3,14.6-22.8,14.5-21.8,19.4-21.8,19.4-13.4,8.6-20.7,3.4-6-13.1.3-17.8,19.7-19,19.7-19,16.4-16.7,21.6-17.4,36.8-31.3,36.8-31.3l23.2-19.4s2.3-1.5.7-3.1-13.7,9.9-13.7,9.9l-15,10-11.4,7.4-22.8,17.5-7.8,7.1s-11.6,12.2-15.9,15-16.4,5.5-20.9,1.4S595,1233,595,1233l16.6-17.5,21.6-21.9,21.7-20.4a23.6,23.6,0,0,1,7.9-4.5c4.5-1.4,13.3-10,13.3-10s20.2-17.1,21.4-20.3,22.5-28.7,22.5-28.7l7.4-10.2s12.7-17.1,17.3-18.1c0,0,3-1.6,2.2-2.8s-7,2.8-7,2.8l-11.9,8.7-12.4.4-10.9,3.1s-8.6.8-11.6,3.2-20,10.2-20,10.2-32.7,4.5-37-6.6,9-15,9-15l32.3-17.1s23-5.4,28-4.5,24.1-7.1,25.4-7.1,52.1-5.3,95.6-1.6,76.4-10.3,76.4-10.3,25-12.9,38.1-12.9,118.3-49,142.8-58.6,29.9-4.7,29.9-4.7l27.1,16.4s3.7,4.6,5,2.9-16.8-16.4-16.8-16.4-14.8-8.4-13.5-13.2,26.4-16.7,26.4-16.7l21.2-12.2s19.1-15.8,29.9-18.1,41.2-6.2,64.7-3.7,45.9,11.4,45.9,11.4,3.3,2.2,5-2.5-12.1-10.3-12.1-10.3-21.5-8.9-34.9-9.6-63.7,5-63.7,5-32.9,7.6-41.7,18.5l-15-15.7L1105.7,850s-58.3-76.7-69.4-76.1-74.1-56.1-86.9-81.1S908.3,649.4,909.3,567s12.6-78,6.4-92.5-6.7-20-36.3-33.3-46.3-14.7-101.8-69.7c0,0-7.6-6.5-18-16-17.9-16.4-44.3-41.9-55.4-59.3-17.5-27.5.3,25.9-26.3,38.5s-21.9-14.5-45.6-22.1c0,0-46.5,7.8-63.4-10.7s-49.1-17.1-49.1-17.1l-42.7-22.7s-58.4-4.3-76.9,22.7-25.2,62.9-24.9,78.4S390.9,418,395,423s18.2,22.3,17,33.4-4.9,47-10.6,60.6-7.6,31.5-1.5,45.5S422,603.8,422,603.8s3.7,4.5.7,7.6-21.1-15.2-21.1-15.2-22.2-12.1-24.9-27.3-5.8-19.8-.1-53.8,6-44.3,3-53-.4-20.6-21-60.5-8.5-107.3-8.5-107.3,15.5-38.5,29.7-42.6,15.3-14.6,15.3-14.6,2.2-15,11.1-23.7,16.4-25.6,16.4-25.6,30.9-49.9,54.2-61,20.9-15.9,21.8-16.1,8.1-8.3,27-13.5,62.6-25.3,62.6-25.3,21.3-12.5,46.2,19.3c0,0,13.1,5.5,27.1,23.9s26.3,27.8,26.3,27.8,26,30.1,32.4,40.9,16.9,20.1,24.6,5.4-28.1-49.1-28.1-49.1L667.2,99.8s-28-21.5-28.8-32S649,63.9,649,63.9s71.4,43,71.6,46.3,46,33.1,61,81.4,22.5,83.6,3.8,121.6A43.9,43.9,0,0,0,774,335.3c-2.9,14.1-11.4,26.3-17.8,24.5S722,323.5,722,323.5s-10.1-23-2.5-40.2,17.6-33.4,11.8-42-5.7,13.9-5.7,13.9-18.7,25.2-26.4,28.5-51.6,39-76.5,37.3-53.2-6.3-64.8-21.6-54.8-49.1-75.8-49.1-76.5,3.2-83,43.1.8,57.4,12.9,80.9,40.3,44.5,40.3,44.5,28.5,9.5,35.6,70.7c0,0,11.3,17.4,33.4-6.4,0,0,14.6-5.7,23.9,21l12.5,1.1s-1.8,10.8,3.9,13.9,21,1.4,21,1.4,9.8,8.3,12.2,13.3,7.1,13.9,15.3,13.9,31.6-3.2,49.9-27.8,42.7-72,39.6-81.9-31.3,49.1-29.6,56.7,29.4,44.3,16.5,84.1-5.3-29.9-5.3-29.9"/><path class="cls-1" d="M1028.7,770.9s-15,119.3-39.7,176.9-53.8,175.3-48.1,252.2,58.6,207.3,64.6,232,11.1,63.7.9,104.4l-10.1,40.8"/></svg>