<svg id="Layer_2" data-name="Layer 2" xmlns="http://www.w3.org/2000/svg" viewBox="0 0 1521.9 1582.1"><defs><style>.cls-1,.cls-2{fill:none;}.cls-1{stroke:#000;stroke-miterlimit:10;stroke-width:6px;}</style></defs><title>scarf</title><path class="cls-1" d="M493.9,1599.7s-8.3-174.6-39-335.6c0,0,71.9-56,77.5-73.2s-8.5,0-8.5,0-23.3,26-32.8,23.1,34.2-32.9,34.2-32.9,25.4-17.7,37.6-35.3,22.6-33.3,22.6-33.3,38.2-23.8,11.5-110.2c0,0-2.3-7.6-4.4-7.1s.9,21.3.9,21.3,5.9,60.2-9.8,69.2-34.2-3.5-34.2-3.5-34.3-41.3-46.1-79.8-13.9-29.1-15.6-56.2c0,0-.9-10.3,5.7-10.2s-1.1,10.9-1.1,10.9-1.5-8.3,7.8-18.5,30.5-55.3,30.5-55.3,23.7-41.7,25.2-48.4,21.9-22.8,25.3-23.1,12.9,2.9,8.4,9.8-23,22.2-23,22.2-4.1.5-1.8-1.9S613,793.9,613,793.9l28.9-22.1,14.6-16.9,18.7-12a10.5,10.5,0,0,0,6.6-4c2.8-3.5,11.3-8.4,12.4-8.9s9.5-4,15.5-4.4"/><path class="cls-1" d="M561.7,469.6s65.7,43.1,95.8,92.6,143.4,195.5,175.8,259,47.9,105.2,47.9,105.2l-5.3-140.3s-.9-6.6,3.1-5.8,4,17.4,4,17.4l8.6,130.6s-1.4-21.7,32.3,134.3c42.6,197.9,83.4,397.7,83.4,397.7s8.7,21-5.3,23.5-24,.9-24,.9-5-2-6.7,5.8-11.9,1.3-11.9,1.3-3.7-2.8-18.7.9-24.8-2.2-24.8-2.2l.4-33.7-4,17.7s-24.8-6.8-27.9-16.4-4-61.7-4-61.7-4.5-69.4-11.1-111.4-18.4-131.8-24.4-144.7-20.5-79-20.5-79l-17.1-98.1s-13.2-174-80.7-242.3-191.4-192.2-191-247.1c0,0-2.9-15.8-.6-18.1s13.4,1.5,13.4,1.5l13.3,12.4"/><path class="cls-1" d="M720.7,739.1c36.4,47,66.4,111,67.3,169.4,1.2,77.5,28.4,161.5,28.4,161.5s30.5,105.1,33,121.6,11.5,60.7,11.5,60.7l5.9,21.3s1,3.2,0,4.2-5.3-7.1-5.3-7.1-34.6-57.2-35.8-61.9-31.6-68-31.6-68-43.9-100.6-48.9-111.1-42.7-72.3-48.4-75.2-31.7,11.9-31.7,11.9-9.1,4.9-12.7,3.2-3.8,8.9-3.8,8.9-2.8,12.3,10.9,40.8,40.6,85,40.6,85,16.4,42.7,17.8,49.3,54.2,119.4,65.7,194,32,118.9,32,118.9,24.2,97.1,22.1,133.2c0,0,1.3,13.9,13.7,5.4s21.8-19.5,34.6-21.6,20.7.9,20.7.9,11.1,2.4,14.4-6.8,6.5-10.9,6.5-10.9,3.3-2.1,6.3-.8,3.8,4.6,7.1-.3,4.8-7.9,7.1-8.3,8.7-9.7,9.5-11,6.9-3.5,8-5,5.7-6.9,6.2-10.4,16-4.1,16-4.1,5,.3,11.6-8c0,0,4.2-3.1,8-3.8s9.8-7.7,9.8-7.7,4.3,1.2,5.6-4.5a14.4,14.4,0,0,1,5.9-8.4s6.5-4.2,8.8-16.4,11.9-13.6,17.7-13,5.4-28.2,5.4-28.2a3.6,3.6,0,0,1,2-3.8c2.6-1.3,8.6-.9,8.6-.9s1.1-1.4,1.2,4.5,2.7,16.1,2.1,17.1,2,15.7,2,15.7.7,3.9,3,3.8,3.6-4.7,3.6-4.7-.4-3.6,5-3.2,4.1-18.7,4.1-18.7l.2-35.8h5.8v19.5s.7,14,2.2,15.2,5.1-.1,5.1-.1,4.6-2.4,4.6-5.5h3.1v-28.7s-1.7-20.3-1-29.6.7-36.3,2.8-43.6,3-6.4,3-6.4l4.1,4.4v11s1.8,26.8,1,28-.4,30.8,1.2,38.6a49.7,49.7,0,0,1,1.4,12.5l5.3,5.2s1.4,1.5,1.3-4.6-2.1-15-1.3-19.5a150.4,150.4,0,0,0,1.3-22.9c-.3-5.7-2.2-12.1-.9-20.7s1.3-32,1-33.5-3.3-7.7-3.3-7.7l-1.1-31.2s-9.1-57.2-10.6-76.2-16.9-49.7-16.9-95-8.3-145.8-24-194.4S993.4,761.1,978,736a152.9,152.9,0,0,0-43.5,11.2c-21.9,9.5-81.1,23.4-106.5,14.2s-2.5-5.8-2.5-5.8,19.5.2,31.5,0,55.2-4.1,57.7-7.1,53.4-19.8,65.2-23,37-14,35.4-34.8-5-48.5-11.3-68.7-6.3-50.1-15.9-60.3-26.5-41.5-26.5-41.5-17.5-30.4-37.3-51.4-55.6-60.7-89.4-67.4c0,0-6.3,1.1,3.1,12s30.1,33.3,31.1,33.3,10.5,11,12.9,18.2,18.2,39.4,21.7,42.6,41.8,59.9,41.8,59.9,8.7,16.8,9.3,22.2.3,18.2,2.6,23.6,8.5,24.8,8.5,24.8,13.3,27.5-3.6,51.1-43.9,31.5-43.9,31.5-6.7,5-21.8,7.1-23.9,4.9-23.9,4.9-33,5.7-44.4.4-47.7-14.1-52.8-40.4c0,0,89.2,17.3,107.8-4s51.1-33.7,51.1-33.7S950,654,948.6,634c0,0-7.6-4.7-23.6,6.2s-36.8,33.5-36.8,33.8c.1,2.2-45.9,15.5-64.5,5.9a1.2,1.2,0,0,1,.2-2.2c5.1-1.7,17-5.4,28.1-5.8,14.5-.6,54.5-47.9,54-70.7,0,0,1.5-4.8,0-5.2s-5.8,7.3-5.8,7.3-15.1,26.6-26.3,33.3-9.1,15-31.2,23.8-47.5,28.4-62.2,29.7-32.5-6.8-32.5-6.8-6.8-8-6.5-10.5,3.7-6.7,3.7-6.7.7-2-2.1-3.5-11.1-.5-11.1-.5-19.4-17.6-15-38.3c0,0,28.4-1.8,36.4-16.9,2.2-4,6.4-8.3,11.6-14.1l2.8-3.1s-63.6-32.7-68.4-49.3c0,0,48.1,39.3,72.5,44.3,7.6-9.3,15.1-20.7,22.3-40.4,5.7-15.3,10.5-34.8,13.4-59.9,0,0,6.6,51.7-6.7,67.4,0,0,39.7-44,43.5-74.6S828,404.8,828,404.8l3.1-26.1s-.3,17.1,7.5,14.6,12.9-19.5,12.9-19.5,11.7-15,13.6-20.4,14.7-31.3,8.3-58.3-22.6,8.8-22.6,8.8-9.5,15.4-11.1,15.6-4-9.3-4-9.3-30.9-51.2-41.7-60-48.4-70.4-46.6-76.3-59.1,9-64.7,13.5-54.3,44.9-61.3,48.8-50,37.6-46.1,104.7,34.2,127.4,34.2,127.4,21,29.8,63.4,49.3,74.2-4,74.2-4,60.3-40.1,66.5-54.6,15.9-29.3,14.4-46.5,46.1-4.6,46.1-4.6,5.4,3,6.9-.6,11.2-27.7,11.8-41.7,9.5-34.7,5.3-60.2-7.4-3.8-8-43.5-59.5-129.6-59.5-129.6S810.5,78.8,757,80.8c0,0-21.3,3.3-20.4,18.7,0,0,2.3-12.9-40.9-18.7s-55-2.3-69.2,8-49.4,32.3-54.2,40S522.9,169,526.2,245.9s-2.7,79.1-2.7,79.1-5.6,23.9,7.1,43.5l12,23.5s10-.9,4.9-16"/><path class="cls-1" d="M708.6,724.3c4.1,4.7,8.2,9.6,12.1,14.8"/><path class="cls-1" d="M765.4,819.8c.1,9-10.3,26.6-10.3,26.6L729.4,865a20.1,20.1,0,0,0-3.9,3.8L699,904.3s-34.9,22.4-46.6,25.4-44.3,17.1-44.3,17.1-13.7,36.4-23.2,55.5-34.9,71.3-34.8,87.4-101.8,178-101.8,178a78.4,78.4,0,0,0-7.9,4.4c-3.6,2.4-8.6,16.7-24.9,13.8s-34.6-.9-56.8-24.4-16.4-102.6-16.4-102.6,8.4-34.6,16.4-39.5c0,0,2.5-2.4-1.6-1.5s-29.8,34.8-15.5,103.8l1,6.2s.3,3-.6,3.6-8.1-6.5-8.1-6.5-24.8-30.2-12.4-64.7,39.6-59.9,39.6-59.9l23.2-18.8s2.5-2.2,1.2-4-68.1,32.2-65.7,76.5c0,0,.2,1.3-.4,1.4s-2.1-35.5,1-46.3,3.7-42.2,3.7-42.2-3.2-40.1,1.4-48.8,17.1-57.9,18-59.9,5.9-40.3,6.6-45.7,6-29.3,6-29.3l9.8-47.6s2.6-24.9,1.9-32.9,5.3-42.9,5.3-42.9,2.2-9.4.2-9.4-8.5,26.7-8.5,26.7-6.1,32-6.2,50.9-8.2,73-8.2,73-17.6,68.9-17.5,80.2c0,0,.1,3.9-1.6,4.3s-2.6-15.2-2.6-15.2-2.3-61.9.5-84.1a283.2,283.2,0,0,0,1.8-44.4s0-19.5,4.3-26.6,8.9-40.9,8.9-40.9,7.5-40.5,11.4-48.9,13.3-41,13.3-41,11.7-28,26.6-38.2c0,0,1.5-1.6,6.2-8.9s27.6-21.7,45.8-21.7c0,0,7.9-.5.8-8s-.8-17.3-.8-17.3,18.2-7.7,19.8-12.5,10.2,16.9,10.2,16.9,12,38.9,31.1,58.6c0,0,1.6,2.6,3.5,1.6s-2.9-12.5-2.9-12.5-16.8-43-41.2-79.6c0,0-4.6-7.2-1.8-13.5s13.5-14.5,13.5-14.5,3.1-2.6,4.9,3.2,4,20,4,20,14.2,55.1,24.6,64.7c0,0,1.3,1.9,2.9,1.2s-1.2-9.8-1.2-9.8l-11.6-33.1s-8.2-21-12.7-39.6-5.8-40.1-5.8-40.1l.2-26.1s4.8-32.7,19-44.3,35.9-31.9,35.9-31.9,32.6-10.5,22,11.3-35.3,37.3-35.3,37.3-24,12-22,43.9S516,542.9,516,542.9s1.7,4.8,3.7,4.4,2.5-9.1,2.5-9.1l-6.5-25.7s-2.6-26.8.8-39.9,4.4,3.8,4.4,3.8,1.6,14.3,9.3,25.5,18.7,31.6,32.1,46c5,5.4,16.3,21.9,31.1,42.7,24.6,34.5,58.9,80.9,90.3,108.5a270.4,270.4,0,0,1,24.9,25.2"/><path class="cls-2" d="M1001.1,586.8s28.1,5.1,39,63.9S1061.4,878,1061.4,878"/></svg>