<svg id="Layer_1" data-name="Layer 1" xmlns="http://www.w3.org/2000/svg" viewBox="0 0 123 123">
<defs><style>.cls-1{fill:#fff;}.cls-2{fill:#d09cab;}.cls-3{fill:none;stroke:#fff;stroke-miterlimit:10;stroke-width:3px;}</style></defs><title>rebozology_logo</title><circle class="cls-1" cx="61.5" cy="61.5" r="61.5"/><circle class="cls-1" cx="61.5" cy="61.5" r="61.5"/><circle class="cls-1" cx="61.5" cy="61.5" r="61.5"/><circle class="cls-1" cx="61.5" cy="61.5" r="61.5"/><circle class="cls-1" cx="61.5" cy="61.5" r="61.5"/><circle class="cls-2" cx="61.5" cy="61.5" r="61.5"/><circle class="cls-1" cx="61.5" cy="61.4" r="54"/><circle class="cls-3" cx="61.5" cy="61.4" r="54"/><circle class="cls-1" cx="61.5" cy="61.4" r="54"/><circle class="cls-1" cx="61.5" cy="61.4" r="54"/><circle class="cls-1" cx="61.5" cy="61.4" r="54"/><circle class="cls-1" cx="61.5" cy="61.4" r="54"/><circle class="cls-2" cx="61.5" cy="61.4" r="54"/><path class="cls-1" d="M47.6,51.4V83.8c0,.7.2,1.5-.1,2a2.8,2.8,0,0,1-1.7,1.5,2.2,2.2,0,0,1-1.6-1.4,31.3,31.3,0,0,1-.4-4.4,8.6,8.6,0,0,0-.3-1.7h-.8c-.6.3-.3,1.3-.4,1.9s.2,2.6-.1,3.7a2.3,2.3,0,0,1-.8,1.2,1.3,1.3,0,0,1-1.8,0,3.4,3.4,0,0,1-.9-1.2c-.3-1.1,0-2.5-.1-3.7s.2-1.5-.5-1.8h-1c0,1.4.1,2.8,0,4.3s.1,3.1-1.9,3.1-2-1.6-1.9-3V79.7h-1a24.6,24.6,0,0,1-.2,2.6c-.1,1.1.1,2.3-.4,3.2a3.2,3.2,0,0,1-1,1,1.4,1.4,0,0,1-2-.3,2.7,2.7,0,0,1-.5-1.4c-.1-5.6-.1-11.3-.1-17,0-8.5.1-17,0-25.5a4.5,4.5,0,0,1,2.2-4.1l14.4-9.4A6.2,6.2,0,0,1,48,28c8.9-.1,17.7-.1,26.6,0a6.5,6.5,0,0,1,4,1.6c2.9,2.9,5.7,5.9,8.3,9s4.2,8.3,5.2,12.8C95,64.8,95,78.5,94.9,92.1c0,1.3.1,2.8-1.7,2.8s-1.9-1.5-1.9-2.9a20.8,20.8,0,0,0-.1-3.5c0-.4-.7-1.1-1-1s-1.3.6-1.3,1,.1,2.7-.2,4a3.3,3.3,0,0,1-1,1.4,1.2,1.2,0,0,1-1.8-.1c-.3-.4-.5-.4-.7-.9s-.2-2.8-.4-3.6.1-1.4-1-1.9-1.1.7-1.1,2.5a7.5,7.5,0,0,1-.3,3,2.8,2.8,0,0,1-.7.9,1.5,1.5,0,0,1-2.3-.2,2.2,2.2,0,0,1-.5-1.1,27.7,27.7,0,0,1-.1-5H77.6c-.6-.1-.3,1.8-.4,2.7a15.1,15.1,0,0,1-.1,3,3.4,3.4,0,0,1-.7,1.1,1.4,1.4,0,0,1-1.9,0,1.5,1.5,0,0,1-.6-1c-.2-4.1-.1-8.1-.1-12.2.1-5.8.5-11.7.4-17.5a89.5,89.5,0,0,0-.9-10.3c-.3-2.1-1.9-2.8-3.7-2.3a57.2,57.2,0,0,1-20.2.6ZM32.3,41.3c12.8,9,30.8,10.6,39,6.5-.1-.2-.2-.5-.4-.6L47.6,32.6a3,3,0,0,0-2.4.2c-2.1,1.2-4.2,2.7-6.2,4Zm53.4,1.2a92.4,92.4,0,0,1-7.8,5.1,2.8,2.8,0,0,0-1.7,3.1c.5,5.5,1,10.9,1.4,16.3.1,1.7.8,2.2,2.5,2.1a57.5,57.5,0,0,1,8.3,0c2.2.1,2.5-1,2.2-2.6-.6-4.4-1.1-8.7-1.9-13S86.8,46.5,85.7,42.5ZM32.1,44.2c-.2.3-.4.5-.4.7,0,5.1-.1,10.2.1,15.3,0,.5,1,1.4,1.6,1.4,2.8.2,5.5.1,8.3.1s2.1-.7,2.1-2.2.4-5.2.3-7.7a3.4,3.4,0,0,0-1.5-2.7C39.2,47.4,35.7,45.9,32.1,44.2Zm28.8-5.7,12.9,8a1.4,1.4,0,0,0,1.4,0c3-1.7,5.9-3.5,9.1-5.5l-8.4-9.1a56.4,56.4,0,0,1-7,4A75.5,75.5,0,0,1,60.9,38.5ZM77.8,83.1a4.7,4.7,0,0,0,1.6.2,19.9,19.9,0,0,1,7.7-.2c2.9.5,4.2.4,4.3-1.8S90.8,79,89.2,79h-8C77.5,79,77.5,79.1,77.8,83.1ZM51,32c5.1,4.7,15.6,4.7,19.9,0ZM43.6,72.4H31.9c-.5,3.7-.4,3.5,3.6,3.5h5.4C43.9,75.9,43.9,75.8,43.6,72.4ZM37.8,64h0a32,32,0,0,0-4.4.1c-.6,0-1.1.7-1.7,1s1.1,1.2,1.6,1.2c3,.1,6,.1,8.9,0,.5,0,1-.6,1.5-.9s-.9-1.2-1.4-1.3A33.8,33.8,0,0,0,37.8,64Zm40,8.8H90.7c-.3-2.7-2.3-1.8-3.5-1.8C78.4,70.9,78.4,71,77.8,72.8ZM43.4,70l.5-.7c-.5-.4-.9-1.2-1.4-1.2H33c-.4,0-.9.7-1.3,1.1s.9.7,1.3.7Zm34.1,6.5c1.2,1.4,13.9,1.5,14.1.2S78.5,74.4,77.5,76.5Z"/></svg>